<mxfile host="app.diagrams.net" modified="2024-07-14T04:35:19.859Z" agent="Mozilla/5.0 (Windows NT 10.0; Win64; x64) AppleWebKit/537.36 (KHTML, like Gecko) Chrome/126.0.0.0 Safari/537.36 Edg/126.0.0.0" etag="sb4pvA-UFPXP5q_wBXWw" version="24.6.5" type="github">
  <diagram name="Page-1" id="R_4Xx_3Rdc1NfIOWjMJe">
    <mxGraphModel dx="1002" dy="535" grid="1" gridSize="10" guides="1" tooltips="1" connect="1" arrows="1" fold="1" page="1" pageScale="1" pageWidth="850" pageHeight="1100" math="0" shadow="0">
      <root>
        <mxCell id="0" />
        <mxCell id="1" parent="0" />
        <UserObject label="&lt;a class=&quot;no-underline hover:text-blue-s dark:hover:text-dark-blue-s truncate cursor-text whitespace-normal hover:!text-[inherit]&quot; href=&quot;https://leetcode.com/problems/median-of-two-sorted-arrays/&quot; style=&quot;border-width: 0px; border-style: solid; border-color: hsl(var(--sd-border)); border-image: initial; box-sizing: border-box; overflow-wrap: break-word; --tw-border-spacing-x: 0; --tw-border-spacing-y: 0; --tw-translate-x: 0; --tw-translate-y: 0; --tw-rotate: 0; --tw-skew-x: 0; --tw-skew-y: 0; --tw-scale-x: 1; --tw-scale-y: 1; --tw-pan-x: ; --tw-pan-y: ; --tw-pinch-zoom: ; --tw-scroll-snap-strictness: proximity; --tw-gradient-from-position: ; --tw-gradient-via-position: ; --tw-gradient-to-position: ; --tw-ordinal: ; --tw-slashed-zero: ; --tw-numeric-figure: ; --tw-numeric-spacing: ; --tw-numeric-fraction: ; --tw-ring-inset: ; --tw-ring-offset-width: 0px; --tw-ring-offset-color: #fff; --tw-ring-color: #3b82f680; --tw-ring-offset-shadow: 0 0 #0000; --tw-ring-shadow: 0 0 #0000; --tw-shadow: 0 0 #0000; --tw-shadow-colored: 0 0 #0000; --tw-blur: ; --tw-brightness: ; --tw-contrast: ; --tw-grayscale: ; --tw-hue-rotate: ; --tw-invert: ; --tw-saturate: ; --tw-sepia: ; --tw-drop-shadow: ; --tw-backdrop-blur: ; --tw-backdrop-brightness: ; --tw-backdrop-contrast: ; --tw-backdrop-grayscale: ; --tw-backdrop-hue-rotate: ; --tw-backdrop-invert: ; --tw-backdrop-opacity: ; --tw-backdrop-saturate: ; --tw-backdrop-sepia: ; color: rgb(10 132 255/var(--tw-text-opacity)); text-decoration-line: none; text-decoration-thickness: inherit; text-decoration-style: inherit; text-decoration-color: inherit; touch-action: manipulation; outline: none; background-color: rgb(15, 15, 15); cursor: text; overflow: hidden; white-space: normal; text-overflow: ellipsis; --tw-text-opacity: 1; font-family: -apple-system, BlinkMacSystemFont, &amp;quot;Segoe UI&amp;quot;, Helvetica, Arial, sans-serif, &amp;quot;Apple Color Emoji&amp;quot;, &amp;quot;Segoe UI Emoji&amp;quot;; font-size: 24px; font-style: normal; font-variant-ligatures: normal; font-variant-caps: normal; font-weight: 600; letter-spacing: normal; orphans: 2; text-align: start; text-indent: 0px; text-transform: none; widows: 2; word-spacing: 0px; -webkit-text-stroke-width: 0px;&quot;&gt;4. Median of Two Sorted Arrays&lt;/a&gt;" link="&lt;a class=&quot;no-underline hover:text-blue-s dark:hover:text-dark-blue-s truncate cursor-text whitespace-normal hover:!text-[inherit]&quot; href=&quot;https://leetcode.com/problems/median-of-two-sorted-arrays/&quot; style=&quot;border-width: 0px; border-style: solid; border-color: hsl(var(--sd-border)); border-image: initial; box-sizing: border-box; overflow-wrap: break-word; --tw-border-spacing-x: 0; --tw-border-spacing-y: 0; --tw-translate-x: 0; --tw-translate-y: 0; --tw-rotate: 0; --tw-skew-x: 0; --tw-skew-y: 0; --tw-scale-x: 1; --tw-scale-y: 1; --tw-pan-x: ; --tw-pan-y: ; --tw-pinch-zoom: ; --tw-scroll-snap-strictness: proximity; --tw-gradient-from-position: ; --tw-gradient-via-position: ; --tw-gradient-to-position: ; --tw-ordinal: ; --tw-slashed-zero: ; --tw-numeric-figure: ; --tw-numeric-spacing: ; --tw-numeric-fraction: ; --tw-ring-inset: ; --tw-ring-offset-width: 0px; --tw-ring-offset-color: #fff; --tw-ring-color: #3b82f680; --tw-ring-offset-shadow: 0 0 #0000; --tw-ring-shadow: 0 0 #0000; --tw-shadow: 0 0 #0000; --tw-shadow-colored: 0 0 #0000; --tw-blur: ; --tw-brightness: ; --tw-contrast: ; --tw-grayscale: ; --tw-hue-rotate: ; --tw-invert: ; --tw-saturate: ; --tw-sepia: ; --tw-drop-shadow: ; --tw-backdrop-blur: ; --tw-backdrop-brightness: ; --tw-backdrop-contrast: ; --tw-backdrop-grayscale: ; --tw-backdrop-hue-rotate: ; --tw-backdrop-invert: ; --tw-backdrop-opacity: ; --tw-backdrop-saturate: ; --tw-backdrop-sepia: ; color: rgb(10 132 255/var(--tw-text-opacity)); text-decoration-line: none; text-decoration-thickness: inherit; text-decoration-style: inherit; text-decoration-color: inherit; touch-action: manipulation; outline: none; background-color: rgb(15, 15, 15); cursor: text; overflow: hidden; white-space: normal; text-overflow: ellipsis; --tw-text-opacity: 1; font-family: -apple-system, BlinkMacSystemFont, &amp;quot;Segoe UI&amp;quot;, Helvetica, Arial, sans-serif, &amp;quot;Apple Color Emoji&amp;quot;, &amp;quot;Segoe UI Emoji&amp;quot;; font-size: 24px; font-style: normal; font-variant-ligatures: normal; font-variant-caps: normal; font-weight: 600; letter-spacing: normal; orphans: 2; text-align: start; text-indent: 0px; text-transform: none; widows: 2; word-spacing: 0px; -webkit-text-stroke-width: 0px;&quot;&gt;4. Median of Two Sorted Arrays&lt;/a&gt;" id="br4D6P0TwLwxCStL8oGd-6">
          <mxCell style="text;whiteSpace=wrap;html=1;fillColor=#f8cecc;strokeColor=#b85450;" vertex="1" parent="1">
            <mxGeometry x="180" y="50" width="380" height="50" as="geometry" />
          </mxCell>
        </UserObject>
        <mxCell id="br4D6P0TwLwxCStL8oGd-7" value="" style="shape=stencil(fZbdcgIhDIWfZm8zQAg/17Z9j85U606tdqz9e/tmZ0c0uJ47xP0I5JwEBl59bp8/1kNwn6fj4W39M76ctgM/DCGM++36OJ50NPDjwKvN4bh+PR6+9i/z74/n6ctp9H74nlb4nbmSKZeJCu5vngmZ6jzzNAO7cX8FVKEsBuBKrgKg9oAE8gkCbLeUhEoEQKSUDZDLeWYRKIl8MEDRmHwfyBrBG6Amyu4+kDxxMoB3jhwgYu7TVAsVkFcWCs4CTBEoF4RctKeOxHIf8IXYpikHikAIf+MNUW94AGSSaoAoFIE3AlOyeWU+p2E5S9yfQZcQILVuQOwZdJNoS9Ls3wA5u2XZTIHECqeJ9kDpSaauRiNVcAY1QhdBzeLBli5WazpkSsBLV25uRaqWRyFawTQzRRIQYirJzq5atkBqLfouwqUxLBepthWb10vrWZY6UOAeyKCCtDV625mm9gmUC4Wc3VLJMMIE1BsA2FW9JraVlQB7n3c9oMKhCLEvIM1zBPZ25/umNQ1tVEC2G+fFCC8g398O2hNQuQlVu752DBfA+q0ptnqO5JFmeuIuo9DY7KjY71UxdJV4EntifPWorW++R/dC4t7V3DlIB5cHx2bc7eb3yvX//QNFp+bHDT/+Aw==);lineShape=1;strokeColor=default;" vertex="1" parent="1">
          <mxGeometry x="615.0679730495069" y="144.67533076906602" width="4.672539772115442" height="4.665236216357698" as="geometry" />
        </mxCell>
        <mxCell id="br4D6P0TwLwxCStL8oGd-8" value="" style="shape=stencil(7VrJbhw3EP2auRLcl7Pj/IcBy9EgimTISmL/fYoesNV8NfPYcwuQ3LTUa5K1vmLxFD58e/z09eHk7be315ffH/4+f357PIVfTt6fnx8fXs9v8tMpfDyFD19eXh9+e3358/nz5fevn7pk/+mPl7/6F75fcNb41EHe/rj8oRjnf/7h14v40/l5J+6MdyDu221xb7wF8ehuiwcTKoqTr0dT4iReTbS3xbMJeRJ31thyW74aH2Z5byKRl8/BaV0yjuy/fw8Aov1KANFUPwOaCeTI8j0/a1QsGDMxmKhkXkG0zGwgJm5tBhRTyRnEDG5eIViTGKCZUmaAN4nYIURjZ8OFwN2umpQQUMgKMYwd7wAtEEA1xSkAUWsKpgIgDstcBzQ03LsarkdDUGoVQCSAOv59EFCcyfoMDBBHfB0F5KH1o4CmXIMDqh3OfBTglWssANG4fBcgmZLuAhQT7jJcrabeZYdmMZGtAA4T2QoQjFMh6knma9GEOS9J1rAkCbRkIrjGVhuvAzJWq575SMS1gpb2yWSSBARQYAU5NEkCrZown0HSPVWrxMOsJSdRTpKxrJAcrlCYlurQ+gYQtbItFbSDbCmzQ0sSiOoMpMYJAHxJyiRLxm0z024FRns6ICMgMNdIWIFWZxBvVWfwzHDJhDmmXTaWGS4NZrEBJD0zOySkksJvEgvRpAiWpQROAyp3JbWjzfIHjxxX3wedepO5lSO4xUqjaZa3w68Oup3l389YGDghltAE9m+NY/YqJheUZ/qsWEZkP+z71TQP8rQmNG2vxLMj5F8ndYvFvQCADGfaTgkA+HloxrEqVbH4xzRS+C0A0O20MELBspbEzXkdBNaWnXGLZAeAzP06ol8XMRxbQbjtfOhS+Qre1FmtnZYxOzjTZi3VxkuCG6EyALLJxhL2ViY3wMbjrrM25d3iXY0c+n3HewBfwXsEsMZKAMB4eogTw3WAx0MzO3QAqDXRbvIKIFJe2AFz0RFnSSQeOmB2DbF9WNhhdj6xfeKA4BHACpUAILF2xr4AFDwDS2QCSB615LmlobZJPLDi2QGwpUSzfQeAWjOlqlfOUGmq7FqCM7RRIW8aTkVc5VsCSzvLa2J3pohLZH4IdFdp//gKGBDl3pDL9wZ1pPn+StoIy6AGy7lxQ3M09dlBDm5aToUcKxB3A+Tf0MZUbgcBtDmCpMjRrkTYzuxLpXFC6bFRKsFUVnfDIGAbFSicYakromx5GU1465v4zZv4Jlg6Ft4Sl9Gp7Thc4AC8wBG98abbA28tvLOqo/Dvmu4Fk8ab6Dou1w9S+96l814AeocOYM6nmpMOYN3J/033T8B/senm8v+upjvhjbLlbp0xRTrKMfp1GFxW8euzMkrruz5p1FQs/1uzdUse9JMGp7nVEsN526hCV+V3hGg7cOMetxGi3U1vZSqV78F9uOM+WkdbtMvwNMjKKJO76+3MzqDSaUicLeRB+DeAOAqPexzGNNrG9NI8byk6ftMQkIRFTztcPTWIgc5L9VxiAdCTjxVAzVZWADW9WQHUfGgFUBOoFUDNuBYAPUVbAdScbgVQNG8FULPGBUBPM1cANS9dAPREtgNIptcz37hFyFWAnip3ABtDq7m1/IXd+OrJuIRoI9lbz94FwO4y+nQf3Jt3Yp1OwKxRPkEO3V8oQG4tdDIu5QMq6CIZdxYIK1jKSfo7DhiKVfrKQkgdzhozLShC6qCr7+84WAuNb1f6XI94hmbnjd4oxWGjHXWuzPPwwCLP7rnVS6PVUxrVjhT6kka9kxJ59pDGjpc/++8Tt7bIqqRTYPqxoyfdybNcYTHduUTv5yyObcVnWWrRJEzCjp4X5R2lwXo/dqF/iyySDTGUOisl8cpaheYs5QxlNPTHfI2/yVuKyw/vz/++nJ+eLq8H9//H54Lyp8tTw/DxHw==);lineShape=1;strokeColor=default;" vertex="1" parent="1">
          <mxGeometry x="91.79520474481933" y="241.83730535263396" width="564.8815594854823" height="27.35743303693073" as="geometry" />
        </mxCell>
        <mxCell id="br4D6P0TwLwxCStL8oGd-9" value="" style="shape=stencil(lVdJchsxDHyNriiS4Iaz4/zDVZYjVRzLJSvb74OJwrGAGbXi24hiEwS6sXDDd2+7h9ftJoW30/Hwdftz/3jabfjTJqX9y2573J/0a8P3G757Ohy3X46H7y+P59+vD9PO6evb4cd0wq8zrmZqPKFS+H1eiZk4/135fAY8718uAKVSahZQxxGrgFyoFANIiSIAcPVXSo1yuw5IQt0COFEDPqRMNVmAUEEWAlUxgNwhIAole6XSqAZgQaMUDKAWisCHZZSqUC6AByXO8tAitQSZFst0yxTkOqDONM2AQgJ8aAqwPOhKAdIQoWij1Bt1wIMC/l1gACRQrhDQuwUwRWShk9iwSoFhleZ50JUOiJO88EGIkYW0SNEQKAD1dZV/8iY6Aqg2bEJoHBpwoqsTzoIeAYjoTMV5rVkbISBYbUgc1FwDsCVCw5DQlTKVagF1VJ5rUco2SnpEBxnUF2LSS1akvjj+vgCkDsXE3QMasqB1xvlQYBVQIVTnQ8MAGcq54AEW13c1z1TPkr9mgi1zU1IBfU8p6fStaYsAmvTOQh+KXwdoWXGFRnAp08LFHiAAoGF3zE3lE6mvLFJOmxbSNy+SulAGBf/DAG0gnmkerXi9By3rTBqKX+9yPEaFiw4hwEJOQ5wXcmUgDY6+tSszGc0Ckbr1oc8Dy3pC8KIKBGyBejT7KxbrIt9Kp4AGLIr2fB0CUaEsI7fmeayNNnylAlC2BpK2H9AcYveThk5oqP3oeckBGHLAasEVVthMShp1enZh5Pe6sIMfcgM8v6pMxe1HI4AmDje3H809tVKobj8aAHQ4dM0TT5+qyGbjw/j+4ttOHtVsvbKoe5ZgnY9v7HfN/9Z93P3llr9i98cIy4oG1AkiJqrAA2XMtf5J0iDLPvw2/A+Afrw/RZ/2z8/nl+zl//7pqkvnZy/f/wE=);lineShape=1;strokeColor=default;" vertex="1" parent="1">
          <mxGeometry x="89.72256596216971" y="230.19380802626347" width="29.751938020160196" height="30.23240069107669" as="geometry" />
        </mxCell>
        <mxCell id="br4D6P0TwLwxCStL8oGd-10" value="" style="shape=stencil(1VrLbhw3EPyavRIkm4/m2XH+w4DlSIhiGbKcx9+nmPVshjW7JRsIYOS2GrGHZHd1dTU5J3vz+f7dp7tTjp9fnp9+vfvj4f3L/cl+OuX88PH+7vnhBb9O9vZkbz48Pd/98vz05eP789+f3s2R89dvT7/PN/x5tiuh12mU41/nB4Yn6Z8nP5/HPz583I2vIcZlfKmhNjX+63+38S2F3G+PbyGlZXzPIYnxFmxdTxuhuXq/5WV89WDl9ng/jE/BxXpSCslXB5XQhEOTBV89ZB6SCYMWGoUshyxCkEboq49yDyXeNsg52FgNSqhiSXhfSzyDinIe2xb3sBNhgwFtuoxQRdxg0NcZGhwt4jAN1k33EkaWBr5G2ktw4VaLjKV+yb7rBjkMAneTyWmXMF3Q2iWWDEBY3Qp4F7GkkrZsuRgM6VagP6/QqEhxgdbizEh4UhTDpMOmLQwBjVoYGnjFV8BfN3AmGezKBDQAtUIkEMNQrFfDWL1U4CWxh4bAZY5DE3toJRSKg4eoiBIZ7ByHIWboQE5fDUzmdK8hrxlXNC/1w5IQyiLg7YmrCfKhCXg7kEMztDDUDO1gkEJX9QS0VdlLJpY00pUKHcUMA6yxFhSwtyLjUbhkgXiKiDQMIgUuS2iMFuoKDaSoXJKzzECGmCABGNi66Y5KL3hpdI6D9y0Hb226rJvGrlROjwPzTQMVOOOcxiJdR7rSknwD/DdiCTMotI7I8MYeusgHGBBVjirpHvnAS7KQBLfCwGhJMXRtkFYvuW/4vWVAgfO6kectg7IWFM+yKMLAySDKGoctltWt3XWKgvnIoG8pdQtLPEOU0gFhIjJGxVBUiXwwUmRNgw9eL2ygatykmcRLUhVodN40uoehvOQb9e7aE1eb9o3cd7ykxPo0oAYIYBHwHp2lA4qYyjgY5HXTXjXzYcUHquwqDnVr2XYZp3qgWVAaG8j6YBwHFGLpJbRIK7dCrCutgQRqpO514woDqg/IOKXu5wwEDVQMhaW8xfVikEJUMxyUQHPZrMOtYw0cEigqt9YQyQA5qDKuMTQwg6k4dO4UkaJJG/jBS5IEnGUohKlSxle0BuCtiOyitHf1QVWgyUuUQK8s6arB/0+cNJ7h+8WJNrgiToSXfpA4UfD+j8SJXtIPEScaGrbCu+uOHUuKxBoXdF3ftHMFQoeiGnCUwLRWIPRAqij6oXm1pFvLvh0/Xfq4/Bo0iJdS0j1Q5vZYHyQiW+gAK2pNOVjxdckxKUZu+9LQRIlumnw0ZDZMsl+XVC7HFt/aukYtrwqX9dp1NmT2Knrdqg4pBhfdblLLQOqQlukupQkSno42+5DgRv5SWccMSlP2QzMwT4PUYVHcqs1e2wsag9Sh7qFrooTXedMuN91sI63dDArf4CAi+6ZlboOAIywN2W60QwJBj6kZ5nkYxSFJ4VDzVmJ3DY3SlMWvnauLSJd2ZQ/q0A4JGSsbqJP70rnCYQ9FGRS+EHGTqrXETXLu2g11YjwP4klTaplrjWto0w0+lkQn95NmBFrNOeMQOKX4rHLBgjRxkUCWuazPCqPumcahPkRdgnLhm6l52qkM7Erk1K5h4J3dNARcYUBuApG8YuAr+oD4LPyajWljXj/oG8J2uH6o6tLywPdVN1npWBVdX1pGvplCBVAnjxdpsUugqhJoE8E7sFZ1sXsoJ0OCG6ulRtel3Iss02uVdxuRD2WKPhw7VAakqyolBwU9rx2EPyPXtnkrLfIm8hWZRcnyB0kCMlAX94eWYV7ly/jSMRoQpW5zM69/XoILQBsXqYlY+WFDdV5/V/zO8cqvXMxySUM7ouJVWCjM22n5/u/7sOT18fjx71csHx4eH88fwez/z1+94NH5ixl7+zc=);lineShape=1;strokeColor=default;" vertex="1" parent="1">
          <mxGeometry x="695.0270034204345" y="231.91088920168738" width="91.57539941258801" height="28.604612215635143" as="geometry" />
        </mxCell>
        <mxCell id="br4D6P0TwLwxCStL8oGd-11" value="" style="shape=stencil(lVfLctswDPwaXTEkwOc5Tf8jM3FqT1074zht8/eBqsoWoXhl3WSZS2GBxYLs5OFt+/S66di9nU/Hn5s/u+fztpNvHfPusN2cdmd96uSxk4eX42nz43R8PzwPv1+f+pX906/j736HvwPOO0fO9TB2H8OrQDH9e/F9AOx3hwmgJvK1We8dlQAATMUAEqV4G1AqFd8AmMmBL5RCOTcAEXIFApIBVPIIkG1IIZGALJVEQRpADMSIQyRpy5AYhxTItyFlR4IAQqUNKWeqiEOg1H5B34hA0i41gBopLoTU1kHVVettgEYc25BqIQYcUh6ldgFUWIcYR4oTAJJ38Datk5b6EsGFYrafSIC19ksNlnVFHUTekFb9giwJebFliKDQTNJ2tNbZA8aqC7O/UPaAsMyqxjigQMEoz1NCjDMJWwADCtFRdWsASawpLYSUw0wWmHRh68R9Whl6TDGkcd0U8N9G7xRGUeWvUl72Y/veKe2orTLrT9Q8vVG3aV3qT+GZK2ELYEdxlcnoxMzOskY2pr4bbB2QT/LMAOIorvvXA+PW/mzjX5gMwRrGwuhZO9t41Mx0eAK+fhTldDqD+J3l26sKFHh2purPF3D/2IpaNYjy4ym36/kyIm7k05xGdAcBBlwptkbhI1WUTz0qtEahEkenlz5DbYWFKghI463mTIjX68gxDKgiQbNVnB/N9ev11Vqpgw0Wiu14BwUay2gg1/XIs/ScU4pdD/hq/7ls1gc8CYxPOyi4ekn3NZ8J8FU/K20HM76FVDsshSJ03JXXnDsA+nC9Vb3s9vvhUjb9397C9NVwg5PHTw==);lineShape=1;strokeColor=default;" vertex="1" parent="1">
          <mxGeometry x="801.3810020201367" y="218.38383188664523" width="5.031165399460178" height="47.641849278321274" as="geometry" />
        </mxCell>
        <mxCell id="br4D6P0TwLwxCStL8oGd-12" value="" style="shape=stencil(7ZpJbhxHEEVPw20i52Ety/cQIMokTIsCRXm4vSPdyGJXRNcrcOWNds1m/s4hph/DXfrw/eHTt/u76L+/vjz/fv/X4+fXh7v0y12Mj18f7l8eX+XTXfp4lz58eX65/+3l+cfXz5e/v32aK+enP57/nL/w9wXnXWkTFP0/ly9Sdzn8982vl/VPj1+v1kfni1mfj9cnl8zvzz+P1mfXze/Hcby+ulT1+gTru/Ner6+wfrgW9uuH8+l4fQgutncBouvRAEACIbvY9RV6BUBxzQJoh+aSeaTuAdBdGxrQQCtE7WIyYgC1iMFVcyTSO1HUkY0iNQDcetZAliDPau4QCgDkWa3t0JGGi+bSA3ZIYen+lS4lEFxKS65XgEI71HXiK0AD9ZZ/Z2NApK05upw0YBCg6EtnjxaXRUzdAPoxoIiTrBpAqlGiK9kAQFtLXk7x+kggh1KWuVwLDvxYqcYJsJsp7YZNk8WVzeQ3QHMD5FBEc6IGeHAC1S/N2QDVeTCgGl1SOxSXQZdqdmFoQIJXqmIPaoe8HM9twFiKcAXIcOkWXVAWF12DO7SidSmJ/oJ6t653kChZYYfu3dh7DQnDHbS1Jx2lBUAG1IumJeJtO7xSb64EDWi0g8jBawDJYXiX9oKbXAV2GEFHUQEE0NYRlwVvgOQ8cZNodEmiHkha7qCDYnCZ2NIw9Mq7BgFF5NCUpAeG3V6XU7lSvkSAsl79ClDoSEVTh0kC4ZUEkBWgoavsxuJElxIZUFlyvZI0seIuTkUBPKt3XkRhAYTUkWrcAJTlCw/vsJeDMNkTOYT9KwWP3ns+616XOsb1Kbe9KtXlFA4VY3/lTVMONa+q9Qlcvaj2UJrKv9+0Ww3rxQ5d2N5JejyPWL/yL34lQ4fupav1lBqOtML92/kpdRtF06qAVHI0nXtK6kT37Zo+5xVVbq8fK0xu50no7IL3OpsUb0cqPbdQR+JAKHdoexkLVUShtfUmmxEwGx51xfoNUDCDFrHFvVo3jxxJ9KLujyQUJdORgjY0YRyN45oKhGKrRD17X4JdgBkaCSD8Yu+85BmIq4rxK34hskcGI95laAAlewLQdxgcRMTe9vYpytIYoHK3abIcExRHEtmfuHgN8MjC7JGm1zxhkkY1iLb1ois+EhoThx3ltvum8IeqETSAyisCUExSjnQCyHtPKd8UukNdWf8G4BKRABSpEqOl4DB32DuykTHDnXdQ9rDd6vCV9ncQ54ksTOSwdzODc+gpaRWwPIfQqUx2CzZqFYMG1z8t6Rn1jHsqSj/jNqmrtdGARaUJ2N9huls2OSXqfiJqw9zEIKjeOG1eeYGEEeX9gOaiApyw2649Wat8h6GjYgvrGY7CqHJ9M7ITd5AkRBHivgootwFZ14iKHImoQNU5QC5YOZAIFUwlrRE7Mc8qKe6gO/QVx69TK9qhrkRq8wIdnesNnttcJUDSabrsEAkQNSULAyvLEmVrN5cmbR2mmHGS7XUX9mRjVj9IvZvONiS9Oons/0shgNlJjPoOPwsBPwsBS83e1iMJaLoKXVf2cWRrOhwijxHrVz1KEUCmwBBMZSJyKp10f29qHeXqSTcPxNQ6u7xiWl0n0dA2NU9eSfGe2c9gH6lSPgFgMmOSSgHEd7HDuQNpXjINwYY1k1naNz1KyhFbv9G5anCH2Z5Q3beIeW6LZgc2n2rqYrkhd5tNHNXfG85zm0ipd/FYR5+NKFXGiVjar17X0krC5vJspjUNoMEG264TABUobENQAFT3sS1HuTQxXNvUFEAAOdi2qfBPqtjZxuwJYbWt3wmAO9jm8gSA17Dt63kHkINtkE8ASNq24AXQCWCa/FNb4Uh2jEAAkeYOzKCCACjjs6MQAqASiB22EG2N4ATsOIcAKD7YgZFpcRCy7EiKADIdyQy9nFicHauZXoOGj8zgjgBw+MiMBhX23nb4qERkAna8aUoa5GAHqE7cjB3RmgBQbzMDdrLezJjNR6VwoisyJWHWYGbkph7BejODNzWbFFX3WU7UzswQzvUgAG8cWMJGl7+hc2Q3XtNn8Xf0Pl7ztsLjPVtDZaMLHfm56RLlism2XZ+ReNrzJCwXmPvmgI7LvKdQPKpJGnlJBIr4/nriq5+c530zq+fr5cPbgOyXx6eny3zt9f/1QK18dRnGTR//BQ==);lineShape=1;strokeColor=#FF33FF;" vertex="1" parent="1">
          <mxGeometry x="92.36500126610304" y="267.0778304262044" width="286.7194346831809" height="22.065217077744364" as="geometry" />
        </mxCell>
        <mxCell id="br4D6P0TwLwxCStL8oGd-13" value="" style="shape=stencil(rVfZjtswDPwavxIUqfN5u/2PBTbbBE2TRTa9/r50DTsRE09QoG+2rLHI4fDQoE8f25f3zSD8cT4dv25+7l7P20E/DSK7w3Zz2p3tadDnQZ/ejqfNl9Px++F1en9/GXeOT9+OP8Y//JpwqVJrI0r497QSEoX8d+XzBNjvDtcAphJ6QKHQ1gGRSVIHEIUnKFPOHcBWal0H2P9y74NWCnEdYBanHhBtpQBAItEOkAqNr6smCZXYAXKEJ2ii2JuU27xyn1ah1sehBFIcuNj7UJQY+JCFQu0BiRTQWpi4D1xplAIAGOu9NKpFWtcBTUhKDwgkgKUWqWQPqAwAmVrvdFUS4HSrVLgHWChBHFrz0qiVBLBkAJeiLcxyXAO4SBsNASSQ+RB6LRkNBfmQKfRxuNBwH6BUpQc0HAcTM3tAA3EwEmvxgABOqOaio7WQApYsrlI9rQ2wVKPPadMvoxPinC6LNBpxgiap01KGxdg+194kkzeKQ73pD9XKAqgaFjgnPss4RWpVaskDEjoh+ziYSRnU1lHezodIGdA6JpA7ocxN7H5/YCt9Tq78KKldGzUeUEcxJ7JL6gTVZzRVJ1fcFU3N/gQr3wgg8/+WUeDCw39CjD0leKNQPR4HGvbEBhA7a/0eYE0InGADDTvBNth5Nfhxw+SUgdM20LDTX8IDTZotvkoJRuKYDV46dYV1g2epLdNJhk3uJh2SwgQyh3v7bbxB6VO9jlTman6foOhLgCzVfG2Ac4XywZirkdgFmRooSqYiN7Qm2K5i9S1X4P6UfQ1jKCHLGxa3HyVmWmrDZb+C/Zl9mQ/EoC3cTp8C0zgvWb5IghIIcF763oV/AYq2+T30+wsxiK/td5Ku88C+Zk/u/x9MIcgBmUflBSBQ0jn4WTgoLEMWsuhCFiGn/36ZfAywh8vd9W23309X3+vv/q5rS9M9WZ//AA==);lineShape=1;strokeColor=#FF33FF;" vertex="1" parent="1">
          <mxGeometry x="81.99445503716015" y="263.78887754405207" width="34.65009686841904" height="28.898375342103236" as="geometry" />
        </mxCell>
        <mxCell id="br4D6P0TwLwxCStL8oGd-14" value="" style="shape=stencil(lVjZctswDPwav2JAgudzmv5HZuLUnrp2xnF6/H2hunRFUF6lb7KMFXHvSht5eNs9vW43nt8u59PX7Y/982W3kU8b7/fH3fa8v+jVRh438vByOm+/nE/vx+fr79enyXK6+nb6Pj3h5xXnmIl5gnn+9fcWufTnxucr4LA/zgC1Ui6dvVDxwD4T584+UeX79qVQSL0/TDXfB+RK3veASEEAwJPUDuCZxN0HpESpD1ljYBBDCsSuz5Frj1gGeMp9ESRTAjEowJwQBAad1IE+S6FQrRBgshQDhQgBPvSAW6vcA7gekCIxPsG2UqUaMEA6QNYYUNDccnIDFIrYpdTXofjWjssAadN1A0R8QrR1mCYEzEPKbVwaoGpU4IQsxL1L1VMF81CCzVKNlEFaa7E7Ru84cIIuGScWkMDEqQOlr4M+gkHzTUlkC0CtkXUgkwUUvASyWABaZPFWpjkAuKQ7IufBJTAPurbiAEDN57T7hxgcAuh89atyKhyogwJKsAAHgnbqsWm+3BK9HHSx/KAAAVmS2ghtBmBUOCFvekk5DnCoEkqV4QTQS8pxiS0AZaloDMkCIqJp5bhoAWhraCN4AyiQgfR5duKUgZBLSiimlyoJSGtxFIMFZETstSVxPnEghhjtCTP9tIgIflh9FS5XGfSYAhKIWsVLGQACXFJ5JMPIobUxAYZSI4ASijkgwXU/hiyNuO/YO+MPZjhVV70/KxQaLIOucXQbrQ+KgGzZbUVlqH2fnxUZky2hr+ikbPO/JsTs+lpTenbHr0lJW681rUqpr9eaGLbPn9Q2rJfZ75OcR4vIqnkfYf6db/Jp9kaCGsjpLu07TmfUgwzpSBoi17eqglgzW5cSVDviyfUeSUvysv3QE6rVkdYp9oWH4WtnGMQUN+2zbB+tcOG29JaZwNmdqEsJjEBUFWL9ZyQRopWbmGdUxPts7ZGGZ6soGOtlnQEx9qhD9RUiW/8DUvzaD9b/BPpn4jjrT0Gy8X+/c3wAoBf/Pqu87A+H61eZ+f/2M4zeun7Ckcff);lineShape=1;strokeColor=#FF33FF;" vertex="1" parent="1">
          <mxGeometry x="382.8137611092759" y="203.7341213415241" width="4.656937850294753" height="130.05940281280004" as="geometry" />
        </mxCell>
        <mxCell id="br4D6P0TwLwxCStL8oGd-15" value="" style="shape=stencil(7VjLbhsxDPwaXwlKoijpnKb/ESBOYzSNA8d9/X2punJXXHvQnHrJzdnsrERyZkhpk25eH+9etpvIr8fD/vP2++7++LhJHzYx7p4ft4fd0X5t0u0m3TzsD9tPh/3X5/vT3y93/c3+68v+W//CjxMuMSXtqMg/T0+kUSq/n3w8AZ52zwtArMRpAuRGwgCgxHUCaKEWASBRKxOghvHkGqDOMbRALHiFPAMScYCAHGaAUEErRBIH0JHoywCmEmdAoQIAoVJ2gEq1AkCm5rLUSEEMIVGYCxeYiUGpg5Ep+SUaWKJQbv59AUFnCquYFWzIqqo+qamBAFY5zZCqTLqiRQT7X4mtxbHilff/pHuhhAy/H2blFPs+4ASTzPXSiDk0ojtrP5ImwGoqs87EOAXez8Tz+0moZrCf6L3FQqpIZkp5jtg4i6wiFV8CHRy8HEEZCTwvQBW8X8TrHkusE2aWjGUIMNoEFV3ASgVJgFeks5ATMEfTVJxZZ0lDXlethcwxS4E2Ica7WWfWpAJYwQDOr8ViAEQyXsYVUwsCqJeCrYmkkJninFY5P7kMENKZSanhFValNkADWdK06v1hWP5lgJKu9QwKp3V0yTMgw56jzTuSVBKgH1tB5xVygGm1GGSOISdSMF1YlnhWXM7QVHOlNpMvm+RQ4cTXwVwEjSPG/sZ+BTS0GVvZbQnbhtXVGas5fQF1MOaIqwOPvF3VtKOG+QhIq0TfnEVgHYxqwXEpwu5sVKvONXi47eXCpeFCC8WhLFldnR46ANiM9WM3wdiWFEk0DzIvghbAJRNQaD6taPDU8/lgUThBW3ozoPoxJmWqQEDlPIUsWhaySpXVGKDY7ptvWaHBhmItsMxc6mcINGiwn7ZTGBq8PMrkIZdF4ZBV2qTATqLGX3zqceNbHw/RQUy8zfT5EwMc+fqAC9L6fnIbU91/P7kp+/ffT27L/bjeU3WseCVe55Elwe9nP5SY8TcgHMuemxgKpJBVc+XZqF5GIFfgPnOgggXPuN53QIaM1LwaPtFh2GQTVq1Q0ZbK+N4CgI4ZkX0VDIBkZubiZNNHEmRf4u/CDICOb1Zodz3XDzJoS3XkZFEHNBoaNapbQeHgZp1NXNBlDFrXAG+7k/wHgP34ewX6sHt6Ot2gLv/vr0zt0em6Nd3+Ag==);lineShape=1;strokeColor=#FF33FF;" vertex="1" parent="1">
          <mxGeometry x="370.7278935006034" y="350.68577307344253" width="20.44884613468571" height="33.23556409405762" as="geometry" />
        </mxCell>
        <mxCell id="br4D6P0TwLwxCStL8oGd-16" value="" style="shape=stencil(7VrJbh03EPwaXQkuze3sOP9hwHIsRJEM2dn+PsUIHA+LmhJ8Sg66Se9NPZK9VFc35ya9+/r5w5fbm+i/fnt6/PX2z7uP3z7fpJ9uYrx7+Hz7dPcNf92k9zfp3afHp9tfnh5/f/j4/P+XD+PJ8ddvj3+MX/jrGReaC3Ggov/7+ZOSXMj/fvLzM+D+7uEMKM6nFeBdrAIQXGsM8PEa0F2t6/PZhX79fHPNluerlydoLq4nrsWZPkBfD1CjiyYA5nxZT1BcCgKQXd5MVDUgkhOCK0kCSuAVkgIUtlLuLnoBqM6vK+Tmkgb09Qy5utIEoLluDEjKcZ0dB4CJLUXvemVALQKwxTYObSI0YnTF2KxJHDomFzfHZRHdAGQKPmxSnSG5QgCs+coKtCWTwRfzJIgD0F1QfiiurqFRzTVBASnM3zsA+EQkUIocfEjRKg6dbPr1ZFYJQMZRAhWXRbSmwitYd14ALDETW5vE8zKgbAlkEpARagRoropozWkjMpM5nbPzRN6IVhEaAKS8Apo0K/Kr9gXQvGsiWhH9hei+uCBWQHmq2xmyOHQBRxS2kokt4ffiemiYIQsr1c0PBkOLBKow63qGlFwX4Q2bpDX4osmMA4DMOmqSCD4A6kozbZLt1RH6atUkYxW/TwULnKBsulXEKJMHz5MPgktC9lQU0NXJWgPgeSIYrcOQJ5F/36ugQ7kN/LyyT5916fvzQdgfaRiMns/CnnieSicoXuy/BaaWMIXi1fNxJQrUaiUj4c71eSSd2s9hvmM/fv7ClUFJ5IWjLl55jArzyEkFqFvKREl1ANjqYws6CaoL6wqoKVFlQdkkWJdkCgC3F+AJnTeUZ/hEKVt8TYnckl6hT1k6AT04Ux2MTXI+VmiSffE1bylMQfNyT+V5S+NU4gzYMRc1TY8daoT8kCS/98gtCYqa0p04AzkOekfJSJiVoxVrKj94Zyulmpf6H56mSm7HJq9SlIpaajPgL1mbUrROu10BKOMgLIPgPQCMtmSuqnxo3FZBK6imB1ZqK5GBZmQ+QKGtjoPA76o2hJkuZ4AKjcTFH1tSLToAVA2TnpMg+KgPg1mTBvS1PqCFUB1GO3qiU2ioucTY0hreCD7VuA2eI7N2qc7b1lYhH4qgeziurbw0CopawfN0CCtI2dZnBp8ASecDnQGHTooE2uzgT2b1qmS1GTmnFFV+GCRAK+SZ5Zc0Q8GXZNMzxBuFRpTMBz9kzwB1aHg6U7TquQRiqVReIahY+mHALn/QraoaF7mgpKZLVuGiaJo1+hZLplO09yk6zz29Grv5TYfmLidKWIIGrOh41WACAIrv6qdrXgZUFn2jvVSArRcbFUAkNdRJI0CV3UbfRoFwflThuqnErsfKbVvh5JqrDresvu5V00Bi3mhd5hw0Hg3eUDMkWW4ZAV0pyfIosye5Ltv0yAIoH1x1CSBd6WW4DsBetDSAaSBoTRY5g9Arqt64biPWkOXkuhor16aN9F8MS5RJ34Ylb8OS9Xnyl56Fj9+n/ZfXdGSnA5iWtp4HnkODqRDqnDJj/q56w7pNeQ/dd5XEca3k4FLVYgweWg9dX9mS5y2hJVAddKlMvq1NZnoZ4LlEoc6q4cq4MQgMUC1G3sYGYxgiPD3ctHLjGCToexVS20N/C7PaNtoG4Zs4tGUWz6XJa0OLfNVTTF6ij06Qgg+iTJg1bbce1qUEQ49DDbEd7eXVGTy1elH7wZgkrco7CWyg0qFN0vy4cltpCWJE1WV0szT6gHY25Ti/aWetbMc4aAs+tcKY7pBUSFJFQtzQxWQrsnjGypM9iGM1UUKxoe4TGadoJhx3fqdDKxLY304YQlS9w5Fn9B+OK3IE9fZKxgS8vZKxA/53r2RssxJUbiUQ4yYoq0kFimilWGpRFsWwScohHQQgbwtoLt4UX8syMLY5CQSaqleeJeiQW8pCUz6eXCB9NinxFEVKExeuJDlpQtqufFDRs+LIypQHraX053DB9gKKGoeNLpMYrEoZg0Sgey5kv7qQ2VMN2a8kwGiUyW1eDj5jesFv6kIGAKNKEnVuJo7UkuQbljArTQsAqGpLgedC4BdJSBttF5MDidH/9g2ggq9vZzD9kmVj3YNDqx73x1+NfR2AP76/ifvp7v7++UXe8/f85i4+en7rN73/Bw==);lineShape=1;strokeColor=#FF33FF;" vertex="1" parent="1">
          <mxGeometry x="400.03505657158826" y="338.02805073663933" width="68.07620323920037" height="50.47626672345268" as="geometry" />
        </mxCell>
        <mxCell id="br4D6P0TwLwxCStL8oGd-17" value="" style="shape=stencil(lVZJcuMwDHyNriiSALdzkvlHquKMVXHslOPZfj/QqJgRKKud3GiZTWyNBga+e98/vu2G4N4v59PL7tf4dNkPfD+EMB73u/N40dPADwPfPZ/Ou+/n04/j0/z77XG6OZ1eTz+nF37PuEzeTaDg/swf2JGUf1++zfcP43Fx31eK1QI8xbgNCJVc6gFOtgEiVIMBqJPZbwNioeQNwCdKeRuQKqViAEKpbt/PlbKN2ZFz2/drJB97hzgAQCaxVQhMBVnQpFoLLMQgZAVUmyNJVEEVJoB1KTnyIEmTS7ZsOVDGQbMlRmEKyKXYc7U6SgwAgSRbgJAHgKKFFgvg5uR1QKZg01oKCeBq0RisBSUXqrTmpHMpqQWQVgV4G3SMsKMV0GVJAjGKQVrWF5oBAYmizZI2UEZ1KFStBS8UEb09JUs+H2DQSgT2vQWkGTU1DVrEUBG9C8XSZwnGUFu7LOqQgAXvPmRoUeqMe7TTGSXTjR6tVvmKg+KtPdrJhtYSRs1NtxYtJ6iptee7HhVyIGh1oBMmfSKilvsqQIVOLKD4NgGuDyCdgKW34ABdJfb8nuQWBL2eulPtQeHWc10JjPi9WhwWdLw+ponXBkAIKnxdjlKry/WQ+3GiohCAdvuVdOviAWrgmrB/KHemCN5fNaeuHYjY6/u+DfnP+RNDm/Fb8XbyonMBUajPJ9f2wufqpSuJgPys+KB7IfJHCWfjvbGp3t5s9fB/LX4eD4d5q17+36/R+mlewfnhLw==);lineShape=1;strokeColor=#FF33FF;" vertex="1" parent="1">
          <mxGeometry x="437.4409366298855" y="351.51831496461557" width="30.38860239465248" height="6.256575352490927" as="geometry" />
        </mxCell>
        <mxCell id="br4D6P0TwLwxCStL8oGd-18" value="" style="shape=stencil(lVddbxpBDPw192p57f18TtP/ESmkoFKICG2Tf1+j0xFsYKq8HYvnvPaMZ/cmfXhbP72uJuG342H/c/V383xcT/ptEtns1qvD5mhPkz5O+vCyP6x+HPa/d8/z79enU+Tp6df+z+kN7zOuNkp6Qgl/zCuD+rzwfY7fbnaX8Uzi40VI+T6gFCrdATTRABnyIK0OkDu1CgCVenKAWqh2CBjNATpTGwAglNhn6NQzrKH7GopQLaBLQjJ80YOqAEAj9m3NtgIyVKXmicuFJN0HtESleEBeNnkbMKilCFAA6O2KaRML0NKwGjgWDQGd2DNdmBKQRmIm9imKkgD1jbHI/wyolAFzoxJnD7BXgIEYTMW3qSaqqK9K2Wcw8gVkaIVyioAOajDXUI0ABX0122CNNQw0EKa1HrvUkM/w0pMLHjrIcBowv6WiOEMiCUwbM4AHsz4JE9SwuSbSACjUEA9mQ17fNnIZ8NDMJK5mVICT9UxD4pYYyTtRC8ZUqYEMNg/BK40ZpFabuBoGSKCTjfORdgYUqNavA+xU9F2ykRKgpZ6IvVo7BhjTxTNtZihA3tLiqXjhbbfluhyaFxkayHDllHaKVkBDWlp4tgDTFtxPqNiElMF+Uo4bkr4o5TZgRJ+0FaRt21IPxkoFVGwc5FDC4jk349UOJ68KWW4qt+M1jr8dDKCj2qOpMrxkZKVUQzyD/dhFTXKMRwzrMref8RnFm6Y51ItmwPw03HkE8mWCbJEvBgZf6zIgZ5+ggd7f4pWqLd53L/5rl/P/xtvD55fAy2a7nT8kLv+PXw62NH916OM/);lineShape=1;strokeColor=#FF33FF;" vertex="1" parent="1">
          <mxGeometry x="467.5777042700106" y="355.02091144462645" width="10.373700685334825" height="26.686139612051193" as="geometry" />
        </mxCell>
        <mxCell id="br4D6P0TwLwxCStL8oGd-19" value="" style="shape=stencil(lVbLctswDPwaXTEEAYLkOU3/IzOxY01dO+O4bfL3gaKhYjASOrlJFFd47C7Ige5eDg/PuyGGl+vl/Gv3b3y8Hgb6McQ4ng67y3jVp4HuB7rbny+7p8v5z+lxfn9+mHZOT7/Pf6c/vM64WqHKhIrhbV6hDJw+Vn7OgON4ugUICBqAVEjoACKgjVACkBOhECBZgEao24AcgG0ETTKWbUBKwMUCKmSnBtLP0gMSbQMiQ2ULSJCdojFCsimVAtmpgXrecgVyMgoQgqWtAAcnIUC7P+VGyzoJPcssbksxtwYuwiswvW4WjL0sSHsm2wBNIFkOSIXnpCSq1GQB6NaQpf1vAag7nBqKFm0jMPvmYZBqaeAmlC17Vqsj8YWnEdACtKritLVIM+OiVHEj5NRLT2OS42cJIJbpWpra15lWt2UDwLDofd2fFcQianZzQmnuWgAI7ImpzbilS7FRueHPbBPK0fVbALT7tWuFv7nfYw2qlba2DB3hYWjKXwDodzQ1mS2kMUQHoCOPrI5KW1gfGPHLhGlTfF1F1Os0tCG+fopwPyJ9zakRo92P7n71jXTzC0p2jMlQYtcfdurVg7nPh4EdAiaLWMa0AvFmfPhy6qiK2BmQ37+O/B+gD5+3n/14PM6Xp9vv/W1Jl+abFt2/Aw==);lineShape=1;strokeColor=#FF33FF;" vertex="1" parent="1">
          <mxGeometry x="469.36346833061225" y="330.4766721835307" width="4.146643555628543" height="5.773395816741981" as="geometry" />
        </mxCell>
        <mxCell id="br4D6P0TwLwxCStL8oGd-20" value="" style="shape=stencil(7VnbThwxDP2afbViJ87lmdL/QALKqhQQ0Nvf19NVZicOe7Y8VuJtGXwmvh47nl28eLm7errZSXh5fX78evNzf/16t4ufdiL7h7ub5/2r/drFy128uH18vvny/Pj94frw99PVIrn8+vb4Y3nDrwNOhTQsKAm/D08ytfL3weeD/P3+YSOf7N95kGcliQCQiNMAEKEUAICp8QCIgZqeBsRGbTQhBYoCAJXyeEJqFIENsVBuA0ALlQwBOnopJwrArTGRjICilIENUojLAKiBKnArG2C0oZqjgdHmJKdRpYLCQHWMc4k98m/KW4xG+RxJKpIPY5TVXMrAYPVBs9yN4ADLfGYPYACImcJ0goCgpdLft1UJALL2rFkBiTKIsmVNiSOAKQEbaunv2xRPA6ndqicMDSQNA0ajrXhQtbXSE3nNDIVubcZJLvWkn3kK4AjAcrsBt86AasWAjC6exJrgE8xoB0gwcAZw2WpKBnSCUtURYHEAnGQK8BiHJZQoDtxbxwpo8ITaSCdARYBCYbSBQ4BW1+SZ2I5ANFalt7MNgBFPWvpPbkK0YbnmSq5lWHLFuokLtZIClQzguLJFamdUGo02vxUQ6qVexkCcYfvSSEYbtFFARq9h2tAGjDRTdCcoMTihRiojbWjs7Pk2IPemvwKEKuJKy83qARlRX+zMuFEpYCZzXd26IjLactO1XfMSqoc21aiu09ApgA+cPUE8U7sTV75nKtjoNrrVRgcFo4AxmXOrjWNQJfbTlbWghFLD6Du+C2B9vEwqoWwVCjIZjeohEOvkVmD0UqIu0g2qZIA0lWhGw0aY5mjtNXjKaNezlvRG7G3vcySAC8j6eJtqGpao9Cn1X0lAKQavEjLa2nIR7yVG2domlUpPllOAOpMxqrg3AUClTVveNAg4xNktbrS6ro77GLE+Rqz/fsTKno6XKwRoWgZIY1WbVYr4O3vuKwxDbTb4DpHgAGSAmWjQ/dVKWOeJCaiUW28gKwDvo7ROZFnhLGB3cJdLRmVnbvk8zTPowsvNDw+LlwBAgp+YbHhgdELpm5vNhRfxt3BfuW2GhwzqQcRTn6688DYgeqMTjoMkr1I0v4FcWtYzYy5Jw/uc6muaMfVF8esZNr8BleK0PIndbacWjzoGWqBTzSPVKQQHgcS9eXT5gGvBrhvq5JH+SXviH+VRZ1hqjf37QcRS6xu9o3wG/tHgmxvDZqjGh+L8j0aMZRQc3x/h6vo4a65FAPdQi7wjL7jDfe+y/ry8/Th+Gbjd398fPixs/++/JNijw1eIePkH);lineShape=1;strokeColor=#FF33FF;" vertex="1" parent="1">
          <mxGeometry x="477.0541298532455" y="339.17012041044245" width="25.18606430305931" height="40.252831218239294" as="geometry" />
        </mxCell>
        <mxCell id="br4D6P0TwLwxCStL8oGd-21" value="" style="shape=stencil(lZbdbtswDIWfxrcHoiiR0nXXvUeBpkuwLCnS7O/tJ81wZjo2h9zJsj+JRySPNfDTx/7lfTfE8HG9nL/ufh5er/uBPw0xHk773eVwbaOBnwd+ejtfdl8u5++n1/H5/aV/2Uffzj/6Cr9GjkJACB2L4fc4JRWc/858Honj4TQjqkLVAFpBHkBgNkBRVN4GCk0BTEBNUNkGpKAUCxR3h5zR382A2TmsEomg1W6hKE5M3NYjC0Ro2gYigWxMJYN0GyBBsOeqGdVJBDXVVoPcllgH2inaVGdBckRHgdhEpILoiGaFWNEpukAOEFsbXBGcU5KEFB4BVJEeCqkUsNyJ9hpCpgDmx+qEVCvUiu6Jc0JqwKKpe2k4iauMaqu1F19xROe18nZEKyPaau0N5IjOFcXu8N8eFVC6s4HoVB9DbCK60TgiYgNsB3Urc3YgRbS10c3SyVzr0WA1dDt+GHA0COrCBJrxVGeDpbfm28zq93f/k2adritNjnLrT5oi3IifbPwxIns2ySgWoOT2c0ygha8iOYJZwNYw4lQl62XautmuH9z/p7SiC4vvvTZoBka0iMezo1InebeKgDp6V64M7YyZ5kQb/LtxvB2Ox/HCMn+/vKG0qfF2w89/AA==);lineShape=1;strokeColor=#FF33FF;" vertex="1" parent="1">
          <mxGeometry x="499.27155227136905" y="334.48653813463807" width="4.743710428504755" height="6.565613991736882" as="geometry" />
        </mxCell>
        <mxCell id="br4D6P0TwLwxCStL8oGd-22" value="" style="shape=stencil(7VnJch03DPyad0WRBNez4/yHqyxHqiiSS5az/H2aeeG8ITjTclKpnHzTQgwJoNlogBd99+X+w+e7S3BfXl+ef7777eHj6/1Ff7iE8PB0f/fy8IqfLvr+ou8+Pb/c/fTy/PXp4/X3zx/6yv7TL8+/9i/8frULTnzsVsH98fdfqvjy119+vBo8PjztDHyWUCYDVXFKDIL4PBnEKM0TAyfFTQYpiLZzgyZ53iA1KZGtd/P6nCUTl6vkMK0vKhrY+jKvr1E8Wd9D2uYNikSWg2aTVpy4em4QvIQ0u+ylkR1CkDRnOUUKi6Di56TFPNJ4tkOejxQddRpItcDDIQmOArJqoI3MExxpHN/bDIq4dG6AE+ucaYQhkDwgJn52GqlkUUreYhWpVLJDUqlzHgLPQ8/rDD7c50DygB3KHFZtEgkBwIcyhzXhhrMdgFZDAHXckGMDJ3VhgMacBpbmxOE+aCaJa6Kz0xngY5nGiQ3JqCRypAiomR3i+MuxQZKSrYEnUQLtxmqP1NgOankJBsp8CAvNgLnJFY1+IGeXB0eoMh5lmpEADNLsQypSCfhgkOcjpfxWWNMCb8+wVKwPCHTk8DaJ0yKZkQCAMPsAIkskrEhTnrm10wyBRgZaDc0AXYQqczsgY5aH4iXNWNI0qO3YIEo1BSVRquxFdg7rjUeO6/omdHbCJBOnaxlg3mW6MuWwSAdkuhJ412arKDKdCRnDwEQJ6qORKHUDQwIjMcfiyi1yjwID65vB6pAex+vD0FKbA+JJhJpKnpEK7icBamn8+7beEdi1LNWuZzKmVft9z/1tQ1FskKB0hPXVoJoKN6xv89UvlOOxPs3nR2lk+a02/t4PqXhssO2/Gbwh/1EIDaR1qKZjgzgQ860GgGRejsSC6m31h9NMoOMWaLJR5fe+zbegjB3Pvu9MkRotxNl60/MorWlwOM+oA6rZ93Uo8d2tYSiK9vtv3kr1Zn1g5ylSmjk/jU8dpHljrcxvjRHNkZZ875wtsHkImf/GoN97A9HyFlEYvXlrjM8M1HQWkepNBDWa0hE4t+eDCk65RS2soQZZZ9GrnxGoQSrxoW7Vbj9cYLKl2GkHDFgrUoJEY6C04uRqpVdvp5hWSwObmwGn7D5MMOj2g2+ODdTKFvTyrDXHDmmRwEwYoS2I5kh8CAOVb6RXV4NMlf8vXerSHX3vUr93qf+mS3UWGjBgigFOmyMh94E5rRatWqnmAfiMBugDPZa4IxKIBBr4txlKaht1/tggWGXYc08MwsIakfsAXWHHnmEI6rPhsMl0PxIbDjt7RVVpxwYDU3YhTtgE0KcxvtukQx0jvjOnTU/o27jlxwbJNp3Qn4zIwqKH4TSje0XbacDXaOOsG/Xu7gN7NcAOpi3BjYsMGm30FBvNJJoHaH4zui1xeHVsEO00ub9MkAvUX4dMs+cpGQMapuxCWTOR6Jcat1Oyx1XR9sNdNhJ4Iw3zBl3Tke8vOrpUqvic7TQg0BixumWekmhR98vrVqHnD1axRs550Yo98Avj+WznBSBNNs1Hhu3kDyBhkIjLTAufYA+G2/d29MKqp1+6QxiwUaEvSz/faLkFIYblSEyUrE96/WWIOQ3GW6LExiS3IO5nvLxUOdPj8kHMbWa8Y23W+3QDM3behrinhcQYZP7wuZBwH5SwUvVP38O/wQA/3J7fPz08Pl5f7/f/t8/1+NP1qV/f/wk=);lineShape=1;strokeColor=#FF33FF;" vertex="1" parent="1">
          <mxGeometry x="513.6514328184455" y="346.53633701687966" width="52.60418958014475" height="40.44175371626454" as="geometry" />
        </mxCell>
        <mxCell id="br4D6P0TwLwxCStL8oGd-23" value="" style="shape=stencil(lVfLctswDPwaXTF8Ezyn6X9kJk7tqWtnHPf194XqoWxA4Tq5yfJCJBaLJTjFh7ft0+tmCu7tfDp+3/zePZ+3U/wyhbA7bDen3Vmepvg4xYeX42nz7XT8eXi+/H59mpHz04/jr/kLfy5xjkqbg4L7e3nBhbL7/+brBb/fHW7wof97g/dxjE+UksZnSjzGVwrO4n0e472j6nVAIg8S8LJ+0AGeSgUZ+77hHlCZSgIBTKnogEgB5BwL1agCSiYGW0qZil4hV3IgIGdyOumEy1YSsa5DTFTBCpJi00IKkWoZB3CgqGn1i1beD2gU9AqVuI3xLVkpJchRq1aqnhqgqDWK+vuOHBCe4LM3eA8IEny132+gEwTPWhQBqk7wrVh+POq0Jb9Fdf0LwwWqKdgdQlkrovXeHhKk28Z78jggJxvQkISkxGYF4RSn7FdbgiJlamZLUmWUA9vGbJQQqUw1mCIUpFK2qhOvCRiftVH0E2W4fy2K0K1pxKjTjDroQ4IPFu9wiU3XCx64kOCLxUN+RNS66z3VO10ZDZ8Ju4rx3dxt6YP4etcltH4aPI/npjS27rqihoQagvy9Ciet0Lkpcck+GVApmy6O2KqTPQo8roKcZckkLbQCGclpmXUZ5r5E57FMQVqnMUN7lxO/6UaWEeHOTOF1J8sQkkCrydRStfQKd0MezUWst1RrH61Gk1fWR5pMjw6oVZox6xWatDMaN7Odf1uER8isfr2lJlmBpGuX5oJnODCnzvmCb9CQVgP8zbn+bsDqhnC1wAHeKPVqsQN8rDZhBgk7a/DSrg3ifVgVAObrTAEydODVVCSKYCDSNV7cCPTZej8iKcinyZeXKeZjfDJDh1/Vi0WyEG/0IDdGNCF89kZ6Hy8P1+vvy26/v9yeb/+312V5dblqx8d/);lineShape=1;strokeColor=#FF33FF;" vertex="1" parent="1">
          <mxGeometry x="333.3474499329741" y="380.4711174090164" width="210.32027863127882" height="22.273318885878098" as="geometry" />
        </mxCell>
        <mxCell id="br4D6P0TwLwxCStL8oGd-24" value="" style="shape=stencil(lVbZbttADPwavRLc5Z7POf4jQJxaqGMHjpO2f18KwqriRpoib7LMEa/hkIPcvR+f3g6D5/fb9fLz8Gt8vh0HuR+8H8/Hw3W86dMgD4PcvVyuhx/Xy8f5ef799jRZTk+vl8/pC79nXKEQJpDnP/MLn0nmN4+z/Wk8r+xdpZIMwCkg7gMkkVQDiBTTvn1MVG1EjqZfe/a5UHXGnol5376qvRh7/UIQAEgUbAKlECOA7yOqEaag34vZAir5DADS56CADJqQK4XOQ6LkACBSihbA5EBI2VPpquTIIQ+OgvWQmaRAQLRljRV7EGLrIWinAfU06coGILV1Zq+suViAwGEoofV1AXDrzB41Oi6JjgNIugr5LofY6rZH72w9hIW/24BKbBUgekpIMniZyIZIQgm0Wl10qpQDFQTIPaDEFuU2IPRl0sI50DmlP3cTVEhAmTSAYLmxqsM2gnv6qQsGhc2JircA3AmdiGSTUEIKmghHOfeNYDQRjsSGlFQYkDL5NvQLm1zbMN8AoJAKZatMSfUWVCnmpqUrANI+HRguXzyApHXHdktUpScCfrtE3oY0KQnYQU51yG4I5WMCOThuRFgBBJWVoiWrLiVEpUDVEmMST9AFv8G8jDIm96UHCSxdJm8VIy1c37HvNCwGeMdwP/4hwzPD9Qs3cFsu23dVr3iq80hdYk/qafOAeL57GP7fXh/+XaEv4+k0H7Hr//urVV/NF688/AU=);lineShape=1;strokeColor=#FF33FF;" vertex="1" parent="1">
          <mxGeometry x="585.3816117771935" y="355.4691133210682" width="17.970252903943447" height="7.405231896127475" as="geometry" />
        </mxCell>
        <mxCell id="br4D6P0TwLwxCStL8oGd-25" value="" style="shape=stencil(lVfLctswDPwaXTEkwRfOafofmYlTa+raGcd9/X2haqQYsLVpb4qMFQlgd4EM/PC2f3rdDSm8Xc6nr7uf4/NlP/CnIaXxuN+dx4s+Dfw48MPL6bz7cj59Pz7Pf78+TZHT07fTj+kLv2ZcpZwnUAq/5xeBQvj74vMcfhiPV+GxUmUTnyiW7fjUiIuJL1RkO547STDxUS8UtwElUBYLyJTbNqDGmxMqlboNaIGke0ACOXem5gBMFVxJmJJtQkzE4EpSKAefdEUAbYM9IUViUFbp1C2AI9UEAEKtGkDOS2fuMymsTFup0SE39IhiudcSZYZJsOVGz1Q6AFRqyQC0NQ20WrTsttV6pqATkqfrVLgMAIHYnVBIQNJdi9hs0o0EsE9/duxrFdK1q14soCqB0ZUUYE0gCwWkoLYIbGVfgeybkrZVSnlh/GZZnW3U5c1W40r0Gq1IQZma0yjjE5R8lt6xU0Xk694F1G07SvpGQPkDt7+jUaaO7nRjA1XZh5NwRtMDdVRXtTKbhEQKqK7Ft1o/0ZCVrWx+n0G4Tv+PmGaETVsLUUDvdAq5OmleEWShc646AC+z/i5ANdmd0yRKwMt0VrOVRBeKIGldNhw51BmQcagmozNwrTQ4oS67wj+SSceB9fsmxOD7TNFNoLJI6n4CJPb7VSD1dNVw6tEWgPsH3wGVJ5qIN3LOKmegnbDY9OrDGa57uozZ+2uFGxglccnu2oURg/xckGV2bbTLtZfhcM4kfhdGdqqrc3HhSPIfbtr68L6lv4yHw7zkX//ut3p9Nf9HwI9/AA==);lineShape=1;strokeColor=#FF33FF;" vertex="1" parent="1">
          <mxGeometry x="589.5594849067954" y="363.9531613084964" width="32.75570725266289" height="5.065916865291001" as="geometry" />
        </mxCell>
        <mxCell id="br4D6P0TwLwxCStL8oGd-26" value="" style="shape=stencil(7VnLbhsxDPwaXwm9KInnNP2PAHEao2kcOE4ff1+qhjYryh4jx6K92WuNJZIz1Ei7iTevj3cv201wr8fD/uv2x+7++LiJnzYh7J4ft4fdUT9t4u0m3jzsD9svh/3b8/3p+8tdG9k+fdt/b//w84TLVEMDBffr9CBRiH8efD4Nf9o9r4YLJT8M95k8GO89pfH/dcbgACCQ8ACITM4DQKI6LikxSUEhxDKNTzAEjuOKAg4hEZskCQUGACHvRoCjKJcBmsPiLQDFHD1VGcvgyYOgNeligo5wSbFSSmNaFZABQOtmCl2JQZZiITFUEhJQhxSo1BGghQNLYk9uDFrVIAiQKI6F00R7EAMXciP5olIDsDurfsYlvS/yPIApjDNwJQ+okXUBIzWy5g1UukRKbAERBF1KT+KyJKYCllSEqpFooQyyVB25MYaUKQYIyOOSUiJfAUDrYACh95HzgGCzlLRwaEmR2MzgyIM61ERlVJxySQA1KlsB6QxID7X0Fa9i8BggYrPEKEuVylSHhLIkVnFa6QyagAJsWitslQ0wplUVlxD5VEAGECG9FSAjQEVbQNCizX1sZEXpDbp3myHbGSLa1h2lcQZejMElQGGbVgcEJL7v4gtbCwUMCOMMgYkxIE3tvgJqSOjWZQE42DUkWoCvcFOUZL2GL9hesdW0+itkTqT0rK9mYCBRqTat6j7QhiIyZcnDVqmAbACxW7SLAGNOVNOoDtLLtHICkN7Valr36YyyVGz3bvYH7HGS+76/AK4Y6dR7xBqAyWfo3ZaE6R3FBn1FQLZwS2u7KNExBi0coxh8T+KKGgVRw1sn0MiHgzYbikoUWThNq2nGTUAoBu5tay1RVGkl8zQDOg4o+Wq1MSQEqFOWtJ+jLIk9oWirRFZaAcUojinjJvBhgDmh6P7A6Fjm1PQZK6B5wJ3M+B+1xuVKmow11k0OkUlb6Vhq9b7IMCk34khX5aMDpZ7dySoPl3xlHVXdGgMC+G7ZOqA9QZ7M2R0iFxhE8/fGbaRemv/+/l/392Gq9N/m76u163reRRar5n7gXgSU8HnX97619BmGdSiqr7HhK39RJ8vTldQ74c8DYu8Ry5KweeDpJFdCZ9ely5YwAnROxNY0cYkdbGSJ7e2m6qGCrqE/m8tK5RI6mEW2N0xc4J7VHJiRKN4Ww8SlWOENkzqwbLwAQ4k2bzHfh4LCqXsxR7/WBNClMVt/3/YHRO8e4appCIh5UkNzxuhyk/xkl9CdmuunkdX1LBKP61pcxAYbzGR8CnQArt/0LtmE9lOXaggED2PTuT5AuvnuApfU9K39PNkojV7EYX1R9GY4ysziCVbDgdzZ5t1B1rC9IvE9s+c7qL0rCPBS6IMvbq4O1w/v74gedk9Pp1dM69/tOyV9dHofFW9/Aw==);lineShape=1;strokeColor=#FF33FF;" vertex="1" parent="1">
          <mxGeometry x="626.251757720871" y="355.8553461461722" width="60.04517871764301" height="29.214035671489455" as="geometry" />
        </mxCell>
        <mxCell id="br4D6P0TwLwxCStL8oGd-27" value="" style="shape=stencil(fZbdcgIhDIWfZm8zQAg/17Z9j85U606tdqz9e/tmZ0c0uJ47xP0I5JwEBl59bp8/1kNwn6fj4W39M76ctgM/DCGM++36OJ50NPDjwKvN4bh+PR6+9i/z74/n6ctp9H74nlb4nbmSKZeJCu5vngmZ6jzzNAO7cX8FVKEsBuBKrgKg9oAE8gkCbLeUhEoEQKSUDZDLeWYRKIl8MEDRmHwfyBrBG6Amyu4+kDxxMoB3jhwgYu7TVAsVkFcWCs4CTBEoF4RctKeOxHIf8IXYpikHikAIf+MNUW94AGSSaoAoFIE3AlOyeWU+p2E5S9yfQZcQILVuQOwZdJNoS9Ls3wA5u2XZTIHECqeJ9kDpSaauRiNVcAY1QhdBzeLBli5WazpkSsBLV25uRaqWRyFawTQzRRIQYirJzq5atkBqLfouwqUxLBepthWb10vrWZY6UOAeyKCCtDV625mm9gmUC4Wc3VLJMMIE1BsA2FW9JraVlQB7n3c9oMKhCLEvIM1zBPZ25/umNQ1tVEC2G+fFCC8g398O2hNQuQlVu752DBfA+q0ptnqO5JFmeuIuo9DY7KjY71UxdJV4EntifPWorW++R/dC4t7V3DlIB5cHx2bc7eb3yvX//QNFp+bHDT/+Aw==);lineShape=1;strokeColor=#FF33FF;" vertex="1" parent="1">
          <mxGeometry x="677.4679364284132" y="342.2753063550035" width="4.672539772115442" height="4.665236216357698" as="geometry" />
        </mxCell>
        <mxCell id="br4D6P0TwLwxCStL8oGd-28" value="" style="shape=stencil(lVjZbhsxDPwavxISKep4Ttv/CJCkMZomQZJef18ujN0uKXvSvNm7HovHcDTSQa5e76+fbw+cXt9enr7d/jrevN0f5NOB+fh4f/tyfLNPB/l8kKu7p5fbry9PPx5vTt+fr5dfLp++P/1c/uH3CSdMaSwoTn9OT1oiOT35cgI8HB93AC7EOQJKvQzInbR7QCUWAGjEyQE6U+4QIOIBjQYIiYWyz6ELlQIAg1r1OVhWACCVRqhSJgY5FKHuq1StMwkAOg12AM009DJAmYova8nUQZW0UPMhSSZlANC4AjNM2lao6gDZnoCkLYdRfOOoAyppo9r8ApV6hoDsAaw450rqG22tT6gN9tqnUIy+7wD8hGqH87Pk4KtaOxWUgxXRU6k1KkADaqbqx6EXKg0AytQ3myjQB5uW6rk3hBIg6xJxCMkGBFCpa9SANmCVeiXx7DYNyKAPFkCeyprBCsOUd1JKRL7B1DUCBAzcUOIaAagPw7jZYg6IGqOvIrSrUgVVGoN6oEaCwmeAyKVMBSU9iH1Itp8galjSMaSykuVSWWfAQFWSNeINoHADGplSngCIrT0q3xISYutGhB0goRV0la1dWRtI2v4vrpBXdl0ChD3RRrSjFXQSMtumUdJG5sDWhss6SINdqmuhL41o4ghASY8SqbGIANgfhjVulhk8ojoJGSOZGesE7/qAyprTNsK7oYYDYX8Y6Mp4ID4KsIEQ3zmrtIKQlrL7od6ldX6XM/57hEWJRsj8j3o5tjlvCJCjJTPKN5B1GSSTcUVSZmakejaZeehoBbMnvhFmJ5CfKRpDWgwQWmETrr3FwgDxfTATh3YIAwR1zXiqy3QIGtBWWs7sq2pTjmyoROvwDvMk8qKtm+QlP9Z9Sc14o6ZVnXwxw1NfnQ8PDEXGhmd4QGEoGTXFHljVkJex40kwDkuQYAWdVKxt/ul8my3iadNFxBPjUVCMDN0Sb+ejDVChxGSN1DZ3g0Kq6/63/V7h/M9Kb4cNkEFa3+52hgaYJ5F4zVQW7Z9TkxXuVbZAOKnb6UYBjeYbkwWAmizrMXsHQESVLeL9XQBaocUmGKACZktfL1Q2gGCijkgjmx1klAxQpj4U1OcZgA8/Z0Jq0CidSbrDs8yZsg54n3GmcdiwztRoCSrMh6/r/gNgH/7dDt4dHx5Ol4v79/E20R6dbiLl818=);lineShape=1;strokeColor=#FF33FF;" vertex="1" parent="1">
          <mxGeometry x="687.5421127458039" y="319.8351326302751" width="30.098382221159454" height="50.56384701012621" as="geometry" />
        </mxCell>
        <mxCell id="br4D6P0TwLwxCStL8oGd-29" value="" style="shape=stencil(7VvJchw3DP0aXVncl7OT/IerLMeqOJZLdra/DxgVW9N43Q/Tx1T5NtLgDUkQO8CH9O7bp/dfHx+i//b95fm3x7+ePnz/9JB+eojx6cunx5en7/LpIf38kN59fH55/PXl+Y8vH17//vp+Us5Pvz//OX/h71ecd7FOUPT/vP6jBJf9f//55ZX+89OXHX2Le/rocj2nDy4AfQuMviSgj+f00fms6TvZf3RVnTc5X87pk0tAn/s5fXYxavpO9l9cGHv67DzhZ3UR6GM+p2+ueE2f2jl9X9y7oaf3KwJU4MBkgRBcgxsehKNBrkCtENxgWyrOqxW862yFCkLtXU4E0BdPbgDsFqaawZYCOcOU6wAAsiUR1F4AwBSnwE0bgOZavgQYrvYrgBRcxUMzQDq4BwoooD4GoLlw6dCpL+m/E5C9K3gGctM5uoA3zQDJFbwHBshuIJcYoLqEXGKA5ur+DHlQsy1f+6gBiawgG1BWI3e6ghgVvaW+TNsxYDNbNwBPXNu01HuNEzYMBiiarQJgtrVUlyMA2BmaSwgghqx0rQ82YFwDgNUwANUvh3wvILgE90ABoHEWIGkPZAO0LBmAfJGttSxRuxdQXa+XAOIfxiVA15GABRigohzQxLZeA4QjBWKA6GK7BEg6ILYB10SjZR0JWICiHbsFqK5eurjWdFRvASTAuralcVGnu3f+ElsF0OCmG4kqe1gx5A2gshXEzMAZyqCAjiuQqLInHWDNMxAP1POBPjR2BgiwJoDlG1UnoHmzI8eAQ5dFHHs/lCV26OEK6jQJ4YZ3FS0fA4T19S2ARDNDYg0UbwYQq3FtBbEaeAYGKAf6QAF1CfOdGjeai6CiTOMEgC6LJeujH1gNzwF6hbrizDOAyr8lSAx8Ba+sd1kJwtmhs7qHLVw5u4e2Z2va2HAG8PszSN7FFEhEI+6FT1LBTHRahC/ttyTZaWRcAkMWAxcNCNbD4DcddWoZRBzZoSFIDGXFBmcAv9eHkGl0P6DWFbZq0ylgf3FhK2ed2aWxl6UQaZY1tkrMBgiroHUvwK/M7s4tdVrLwTObllUxta7I+pS+K/rIWBqhgGDtRyWJxVUuFLr+Rr0hKoJskP1+0t4z0ErXdDz7/Wwx+Jnq56HoIxOgou/Xc2tX8PdZfVXoFX/8WvDMOGZNX9n9NtBJNzi9Kg9lzh9xL3vL2FYR4dRBKSskB2AHHroyKUaFasxWqLmxpJSlQzsoOXMiNiJ4f+ChqFQPbVVyco3vqexdWik0Np9s2utBDUuTzi5CKZpk4NQHNh11SvZKjXVdXnsDtGVsTnVhvyVJIAI7Q1lc3wCdRwpZs1XsR+Hmpe3PMKWF6XNaOdebfBsanbTG2UuoGG9ePgfkvWzIXbIWyAQoNkkKzrymABSbCr85XCGtOtwpQHEp0sbh5JJaIdAmywTs5XvwNs7ccdUAlkpOYUp6SzR6SbpnMsMBfoaeNVtpyJZ0giEqQv0JAirtNxxsqVkqpw+9Fe7uZeuWUd97cZt9vlc0xkpf7xW+wd0iindfOcq9CtRWOed+FWXloYMVMg990Mzw3viBIQu0PHRgKgNtgVwHbN3qzaMYXCo6POlbdea0jrGPNlpeN3PmRpVHqbyINjP0vbRWv5T2NIaDJj9VoA49k0HLdNNBqcph4XZp6DmI1Hl0MnQNIHk6eDCNyv7QkU8ezIAJagCs6TidLKT01O02rUAzpWdsrSuWv4mNIw/J9AqR6wOkJ5JwU0MG+c8EsJuGBMtaIWurEUzHPmBLVFoTnCFaxlgF3yFxPx0hSkxWmeFHtedHted/UO1RDdBuOXSPN2zkYyB0g91w1uVqMcI0Xi263xM9X6HqDms0QuiqWx/CJZoXt5V83fg2KkYdnGGiU43Toe+3lKpLvNygeodpcBM5dIA7x12YaEOHVYISeg/QKyn1YjemSGzGAlzo97xNzJwBYtcAzx16gUhsGNFkuwSAvpsFgM6eBYDeoQWA7mQpvGIC/U8DgB3WUmjYgz1cCwBd4gkg0op9aEM0sNM9Aaz5Dr30CWADBNDkEgAzlTgPUAotg+LEQeEBLs40zBXYGWBqYh6a6DTOZRjSipMfFgBlyQDA9IoFgPkYCwATOBYAZnwsAEwR2QA9uG8AYBLKAsCslQWAaS4DgPNiFgAm0iwAzLxZAJiqswAwt2cBYDLQAlwVDZxutAA4sWwAYELTAsAMqAHAKVMLAHOsNkCnAgYAXZYBgGlfw+3iPLHhFHFi2fBxOBM9/QMDBHiPU2gbYc51A2AQh4KT40YY+jZDdwOgK+D0e6O1sYP5egOAE/wGADXOAOArBA44eOdgAPAlhQHAAMsA4GsQA4DvTTjg4EWLAcA3MwYAX+U02u8/ePfT6DTXwcuiRguCB2+XGq0rHbyOavwNWQW322gZJBRd35vWlq2Az/gGZetbRfKmZs/yaXwHN53YlYd2dasQHkc/uso6vSrZEDwUFPrEHpvonoPQX3roWPlDTbiBGUawJ3PaCtdE5yewspfoHEtwJcDvswuGSmCiGaiH/UdaSfPa1YrAsZ6P1+ZU6Jll8ZDq8RaRP1AxFo14cLOdJnr+wAyx4AVGfMTvs5Yv/n6mwwAegtpEi09eV0rnw2NKr/kfaTLvwYMHOvLh13TqDT0zWNcfflv08uHtlfnHp8+fXx+p336vX6XLv15ftKef/wU=);lineShape=1;strokeColor=#FF33FF;" vertex="1" parent="1">
          <mxGeometry x="93.98119135789125" y="439.2233172421048" width="701.2867169478336" height="34.96558755329784" as="geometry" />
        </mxCell>
        <mxCell id="br4D6P0TwLwxCStL8oGd-30" value="" style="shape=stencil(lVfbbtswDP0avxKSKEric9f9R4GmS7AsKdJsa/9+NAynFh0frG+JzCPxekgO/PC2f3rdDSm8XS/nn7u/h+frfuBvQ0qH0353OVzt18CPAz+8nC+7H5fz79Pz9P/1aZQcf/06/xlveJ9wKVLKIyqFj+kkBpLp5PsEOB5OC0CsFEMPqKQIkCmWDpCEIgNAJOUOwIlC2QYoSS+fmVpF8uOnhbxEagHJs3TyJVJFBghpXAHAAylT0R6QSNs2gAtJ6wGZEgBIoNrbXIRy3AbYfeJUKlRlG1BNpdoDGsW0DWhCxXnJHK0gDNEbXQMpUEkbld7oqjAOMQQKfXIrw0CoUut1UqEG/GoAdoBKGb3QvF/tpIHss/tcOSi2Wgtx/8LCD/cRQimsnkBWGwfIyggUOibO3k0CskkTtbwKBKAlA9Q+/UzJgGywkux5zE4SAjCJAwQqKHKZcg9oShkBxL/QGlVkdJk/LwAFAarPb1MJkfcY15XREZG3+qq2Oi8o0rqKgyULfsEDBAdOPfeZ3xS90OZ+s0hvGDhrmasCyqhlWeCKB0CVZOVWxU0xzzS0AEREx7x6oWHWsAKq3q3QS/dKFBbQlwFh7pq39A7QaGtajsiqGQ0A1hbdfFVvA9RW4+Wevu0KBlRprd2RQJW5aLeGB1YPUOAlG08keJUSyCUbgELxAAUV1zx5jw8AeRt2XBRuDeau/Kqt2/SDZhOT72MgGU4awffoLFRBCBKV3j/MkPOyH2RSgfZWn0OxzR7bGHz8yK2zhpsB7uUTRWCvyTv6ihTRzlDmsp3lA5xWbQVxjG0RBP40dzjuwgNP1Hkn+pRHNTmqm5y9AcmbO6rzJ9p4TN71cWuBwD9jePoCyHCYN/nU+7/A9WK835EWnIJH/V2HpYTt/dqW+h8A+/G5FL8cjsdpp15+90u0HU0LOD/+Aw==);lineShape=1;strokeColor=#FF33FF;" vertex="1" parent="1">
          <mxGeometry x="100.3787970760709" y="437.43762161703546" width="53.05841967772062" height="34.0117258407646" as="geometry" />
        </mxCell>
        <mxCell id="br4D6P0TwLwxCStL8oGd-31" value="" style="shape=stencil(7VrLchw3DPyavbIIvnl2nP9wleVIFUVyyXIS/72b2eLsANzpjW4+6CbNEhwCaAANDE/xw7f7T1/vTsF/e315/vPun4fPr/en+NsphIen+7uXh1f8dYofT/HDl+eXuz9enr8/fT7///XTWDn++uv577HDv2e57EIbQsH/OD8oLsl/D34/L398eFLLvajlITrfjtcn16taH7F/oft7tT41lxJbH5Jan5uTwNb3oNWtLma2vnW9vs0dDtZXbZ/qb5w/6v2ruEbsD3tqfWtwnZw/uaTtWaOr/Xj99uu2PrlA10u26xOxT3BZ7Hqpx+vF+gvnzwQ/sugbXCH29K4v9o9EX2/9W7rr5Dze5QU/zD7eNW3PnKm+3sZXKq4QvIm1/4hH6q9YdLxXJ5HhweBTmiv+eH1xXusr4grBsywOiK6Q80uZx72sb2R/GDTo/QUQJwAKW7xuFoLPmUWxn4ZEaDPpXRdARBkVyrTydYE8U/gGikSDHl7oWiDjCfEyTlxN1YhUICLutQ4lcBzlCePdkTwJhFhtphhKEyvFZpWO3gl7Q59A2KDRKTTGGwy4ETzsSN15DQ3J88mRgIGGbOg6ErDxKdMz1+vHksAQgYHAO4nNGN1F9oJgw4EX2AS+kcz+nhVMxLs9TyYWAmpWhQtTABRElxwJzpOSBoFiYIEz8jcYaAMWjWSMIaDDE8Br/EhR4wheYNAeOmilEX/USsUSCzxhhRN+S1oHPIlcB5vpk4uMyvpp9U3pTmtVXoobEnFkZDZP7rfTgbLHbsGK+GNWQhZthl+DL5D6VsoVQi6EwNelIA7fEz/gDWIoPFIzowDd9hTAUmNHCq7qeEDmZqm+Vpu5wWIYa25IisbTMonKdYG0COAJ0aG1Set2AoyYdFlYAM9LEDBYGmSaCcQlgALl5hDwWmAkZ4JWCJh4yDKJxHWBNFXcBDptH/sCPvR3rP/q1RKTmmlBhICpP61ST/dgM1/PlO8BGtVUuEZ77JZtCRXv+SuCfQW0ZrmyxRnz+76TYAMBYdCHxioxJYpVAgJUh7q0knIr5IquKOglGeFrfe63xwZztbcRVBHmLIKQXDUVQOZhVKAt/A3O96SiQCDoI8FujDvASobOYAuWjeE4w3L7jVyZZ0e+E2B5Blgy7ORityO0WqUb5Q6Ih7SYtTI/BJv6Gp8zDAEzKOG8GALZTDLKnHUdKW2sVCMt1DBrMkcSyhKHTZIVoJ6uM2/tBAJ7Q5tZaJdmMlMaRtRUoKLrY/Duy8Cn8nwPqOlE1jjZgIBp4uCZTjqOkWa00o33928XyJOA7cAnzHHdpkoozeouHCdLuqd+KBMIW6EWnozzQit5owh4d0NnKh1tt2X2fJleH+lQtNLCdUCeqzriEo3QvqTW6iobll7K/m5EQQtQtyEdeYT2dcwSaIcCzpe1QA50wtq2AeluBEqRkRZWmWjDASxLs0fKRGCUfW1W9I6RCUSbx3KdPcthD2R4a6ZzTfxsxiyj2WQCyO3aSugdGZjyQnQLH/3CiKIdVxLNMmkZqI0ZH9EhNSuQEh13ZVmGCJl2KGlrL3ZYKnxcZMBXPJ+Edttw4JCBjeya/UQ05orsDc2yn8uU/X1O+SvPKQ2Nfp9TXpkies0aUN9YEksbjd/NNFjmHlYyc0qZdjv0g0liflb5IyB1DTxkDPaJL63fHBv9xgeeU5e+lfVLcdGhbrz6qgCwv/atrDkJC7rRzUQmIMu9hEr9ACDYD0Z5jiCuCzTbnMAzLAPI0v6MITk7UrDjALyTwbtbq4ZMK261o9mR+knOKLOU7SazbOpTXKrWpJQyvF+ueL9csVv/612uiMtlIdYdeZuDblxG8pb137js5G0PfOMy1dLd8btafklwNPtsLc12+hu7m+aXf9CXySi3XMhz55wezOWeDvCCHQPx+fdSgvnyaOfA/DDpbaqm2ej9P0Mmy5m4mxbWx0Hw5uuAN5bjj8vNwy8Pj4/ni4v73+1NRTw633KMH38C);lineShape=1;strokeColor=#FF33FF;" vertex="1" parent="1">
          <mxGeometry x="752.7936165766862" y="496.00830736423177" width="75.99065426371249" height="31.052144052098356" as="geometry" />
        </mxCell>
        <mxCell id="br4D6P0TwLwxCStL8oGd-32" value="" style="shape=stencil(lVfLctswDPwaXTEkwec5Tf8jM3FqT10747ht8vcF66EqQNZ2cpNlrsAldgFw4oe3/dPrbgru7Xo5f9/9Pjxf9xN/mUI4nPa7y+EqTxM/Tvzwcr7svl3OP0/Pt9+vT31lf/px/tW/8H7DeU+ldFRwH/ObVv+++XoDHA+nJaBR8QqQiN32es7U9HpHDqwvTCmo9ZFK3F5fm10vAQog0ALVqAENAyL5rADcKDIAMBWnKVRqCXJg1mdaqXoACBQ0IFdyIELxlPSWSoakZQNZk66RMojAAtARWqIAIgQmrznURDlsA6KnqBNXHaWyDciFatKkCyV0SoVCXnEAmc6NmuYgYikIwMQmAkP7SB6C5tA8uQYAibw5pUoMDJQicbJ5YJAHidCMNML4xH1AG2Ke8yCOA4CcKDabuAJIl0DRRMiUgTRkA5UtICHHlVG1FltiXAR8sqQdyEMrlE3iRPAZVGLn7J7EoyjVTeSqz1VoMSp9ZWVqN/S4xdpVDQgwEVXagy7f4iDGmSvGEKJ4BAhDzQsA6kBdfVpMwqqCCGm9JemhyNTJlo3eARBg7dEM1ZfmM5kBUmeAvqXOsNGSFFegPqlk0Tiojtp2Pw+i1pVHG1BrN1iyAGSITwN60zTSEADwQ+SVNGT8ABx8pKqPdeHau4iVp8VAqPRJBDM79MSB8s2RmpaGdDEHpNGHF101RF0ZaUmKgG4Q0UFpRDlEHUGGvop6lowzmrQPcGCKMsPpCH6eV7aGjaILWc8MyIPMP0mTDh4PxvNcOwPCGDTvA9zoUAsAGphCti2oA0D1lh3XagEBtaAy7goL0rBnzUPk4lhRXZK8emMgGY1hV6RoLjQy1YE8tPG5eX0ac+ZWAFMpPY9Z+T7g01es/wPk4d+N7uVwPN4uhMv/7Q1QXt1uj/z4Bw==);lineShape=1;strokeColor=#FF33FF;" vertex="1" parent="1">
          <mxGeometry x="838.6327291189614" y="493.49088813401863" width="12.036226910402775" height="29.485106211281845" as="geometry" />
        </mxCell>
        <mxCell id="br4D6P0TwLwxCStL8oGd-33" value="" style="shape=stencil(lVfLctswDPwaXTEkwOc5Tf8jM3FqTV074zh9/H2hKmpMKFlaN0nEigSwWICD3L3sH553A7uXy/n0ffdrfLzsB/kyMI/H/e48XvRpkPtB7p5O59238+n1+Di/Pz9MltPTj9PP6Q+/Z1zOlHlCsfszf/FU078PX2f7w3i8tq8UXGOfKcTP7QuTC+3/hRICBIotgB0VBCjkagsolPPngMrE0gBEg1ABQCj7BhASFQGAQL71IUZKaAcF5AaQAiW8gyttGoQ8AsiS1gVQHNUCAW9R/w/IVBkAkmWG/uItlR8CvHPkDCJD8k3LbVxroeQBQMnccqNWYgfpmqMFILpmT+wtoIJExEKxTfVVHD5EKNn86kwFhEki8QoQQeq0hh1bgANxZSbxNhEB+KCqkswOWnOAHBxXR8rkwQ7C5FuCKyEjiFJQGagW4AEgBhLDvkgVcCNpWNMWgIqr91uOVKqVso7Tuix5S1iVCHkFQImbmNMqU4caKmX2SJh8JVl17dA7az2sAKiAElMxTbFTo9FZAe/IgJRF328UGl413o6UsSyN+Uax1BoVUxBYjrcDwtJybmwRKkyxLYhOE1KAqdFOm5ukb1Mj5bSk6cZWrUpW28TpMJBR4gKFNqzTuAEGmklcW/LpQFPBDj5aH3RkKmg+odi6oDNZBScSy1Ud+jIg92oQwEOl+tvmDM+s2tOteQDOJnJizB0aY7xVFwcL2ZdFcN/tBdVAImZj70EZa/f31h6OF8H2wY7UaX1Ye3SepCqxxd9UbCPH8dR6Nf0D5ysnO4pgOmy+IXXt9eH9OvY0Hg7zbe563V7f9NN89ZP7vw==);lineShape=1;strokeColor=#FF33FF;" vertex="1" parent="1">
          <mxGeometry x="408.487563632056" y="431.76214583477633" width="3.809611750868271" height="73.33427999262074" as="geometry" />
        </mxCell>
        <mxCell id="br4D6P0TwLwxCStL8oGd-34" value="" style="shape=stencil(7VvJbh03EPwaXQkuze3sOP9hwHIkRJEMWc7y92lG4GhYPVNj3wzEt6cRax7ZW/XCd5Pefbn78Pn2JvovL89Pv9/+df/x5e4m/XIT4/3j3e3z/Yt+uknvb9K7T0/Pt789P319/Pj69+cPY+X49MfTn+MNf7/ivMt+gKL/5/VBCc63/578+rr+4f5xtz663pb1ubqQz9dnJ7A+upzO1zfn+7JeqvPxfH3wrtYVoE/IFwQ9QVkAKbnqCUBcWQGxuEZEFLKrsgK8a5UAiourEvRJEAoArYVwCUgrQBVfKKCsZ+iuMyGpSHB9CmS9Ws26oeYaXw921JwwLdeporf1ke2/ueRhfWDvb65GfD9b310IuH9mQ91JRvnw9TWB/IWdV9W57kcNwhMFxO3fO0BhgUIBxkYTMznd0urJQ4mdAtp6Zo1OmQuprGcYWuNbEogVMp+cAdJqdhqNCreLtH6DFG7YuqU1QObghLi+6iGZiM2ikQoxrnooPKJGE41Kcp4BuosRASxapHgA8MS8VU1gS0prlSguVZfWb8idmncyisvFdUJUagjAOzlRsUp0HgDeRUK1klwAKhQqJckY5PUVTErSUA8KYC6qton+wDWdBfOLNzEcAxoym3ApqSHkNbKq7js5g5oahJlUnCceV5RLVhdN2UUCqH568O7QjM4VEEBKleYwpeOWVNCB6KFsgXHnQIxAiyYM4HGdKq5kPEPVVzA9yEwEN0pMNNyPGAGcqyzJTCO6tJpGl/nk2Pg6ZiXBe+pyGiSAFXuZ5nUMyDOUboBEOUsVCwTRNlI6BUCqkWnuM7a02kbTZJIwih4akpOaJxOfyTWvmlOLZ4DBH2CumZurqTM0kFRifTWhuWps62RLVaOAicaBKE6tWUzYSCQKtIqMMgoTooeuHAg5XJ9iOAaIqTMitdaekXcbZdG+bXgT0kw+jtdrVm7SdKLmriKCuifRqNS3lHOXhLLEfgDWqDSSUBIzFIDl5JYOnQHAP5V/GgdEqKF51qqAYHLKzg8dV7Gq9zA6UUAyKSILSgrAnLLSNFctA4JSDZTWFSCr6dXIxdpMUOL8M75hpfUqM8s8AwDpapxkzY9h3g0BrNwYxrdaq5LuheKgNaEAqocyKXZP68xFi4smD2BsojEG8jEFJA6QiFKippFnC2wHYNW6xkncksx+yBmgNAQwzrVbUgbrzKcFcxn1OCpWrbFW8x6dPWZ86l/rN4zkhtMP9BxGts+kFA1JJy7WeNBtZG0rzaW8IIDlDX3rFe5CJWVEmX2YbwXkKcTdlgIzvs3ld4DGTKNgSjnEeuGiqwOp4ljZpwAklEI7AiNvgC1V2obutq9cpzmeuigANJ5zF4XIpwAqpYSUlS+Sn01NO0BkwdjUJ3po1iwaDhRQDxQQprtsgMwpy36DTN2fnsEY3wWgGRdlrU3VAxD7yGbYGQT7JgpgtcCwpYJbujBvMQBWzwx/iCgl4Rz3nYDN+ncFPg2VHRMsLbGoP/xMsP6/CVahXZAfMcFSnjbGRx1IMDnRCoWGezEp3EUNJHOy+q1Vlhz1KPihcdq6NYPOYms3vVA2t+sJWz+j2r1g0XVLo56+AKw+PWaLHAAVe+cEJPOE25ldvehprEfmLcHe0VQDHyV6M1nLtGuvUS9B2ydwOyrIDSHzFNRqOVB+a2bWp0pgQaxl0xxrNNQ3j3mG1Ekvx/26PLtzu9SHbal6MyeLVA+DL4FBO/U2fV8BbtjGI2d907gqrsXZCzoGtEmwG6Dx6xwdOz890i0Vj1Gv8cm3piEh4hkY+6iUoNhQVbIZk4ZdMb0lVgoUwRCjYmAZ5Wg+2zqUzTayucXCr9UoAMYtEugFAT00WOuY9THT6NgJHZNpZnwFNS2N1qHZlveeZpT6vgN+YxNRMVkxbwqKx9JYOq10k7lnomJlYwENWxAqE5+TiemaKOWyvozkOf/cAPwKldSD8WMkmhYzzxHewh6DZlBcminjmeLQNCptd0nAxETDAr0hYAJZ4SloKtiXKTwbSxEn0xruCzlDbHiGMedld3IyjpgKv7QwrnYInuHi2hJMjAo3Ps294O7bCDzERcfNNDCNPjPAMwC27DK/OpZNAyHwOzk2GJdZHJwCzK0fehFpS9g2FxU66rNbipW2ToPpB0Te2AwFaXdcueOXFn9eKfx5pXBZ/yNeKTQAVhAPmZpikk3IVWnQNoi8Wz+sFDy5cT8zvcOUKY2EdHBJK9GCEntWmoexC04Vi7eL7n7GefS4Y044IWKHq/BxQ8T8ZeTf7IajacRklxmpzXtJu/WFrsdhd6YNN4+xWtczs/bYIim8i+nxbuNbQXOyPpj1zJGNH79VWGfrQT68cDYlZOHX4zwmwOPOH5X/9/0G4nq9fnj7wcWn+4eH199r7P+PP9DQR68/7kjv/wU=);lineShape=1;strokeColor=#FF33FF;" vertex="1" parent="1">
          <mxGeometry x="393.88613366737445" y="514.5274694483535" width="105.46185460198353" height="65.21247335403132" as="geometry" />
        </mxCell>
        <mxCell id="br4D6P0TwLwxCStL8oGd-35" value="" style="shape=stencil(lVfZctswDPwavWJI8AD5nKb/kZk4tadunHHc6+8LVUPVgK3N9E2WsMa1WJBTenjfP73tJg7vl/Pp6+7n4fmyn9Knifnwut+dDxd9mtLjlB5eTufdl/Pp++vz8vvtabacn76dfsz/8GvBFeI+gzj8Xl5IIo5/33xe7I+H1yv7qIBiAYF62QaoB6kGUBvVtA1IhVqzgEQFhJQLJTGAUqkBDyVTtR5yp8zbgMrUggUEKsBD7VRt0olhDtJ9lWKj3LcBTSO2OWjfZNu+R0o2BW0bCKgnSsXZhwDsC+Xk7GsG9uLjYRIUfyNxrKAIaNe1oGwLGiiDgGJYE1wRhSJogbqo0QI6NQRoVGwOnCmgpIWCTYIFd1kjdlXtFBEg3XjoVCoAKG2sYLASFRBJicrOQ4HT2WQQcwXwyGoLEG1IUUZnNgGWq1EHHMy/AiQbQCMGXGqNup3mTAkNQ/ByEakge/b2YWR03z6T+GFm1ORK4piNxaJ5scjUkVioeImrZ0f5dup2cKKuBDyazSWgIaKM2w2tP9AjGQGsgIp7fBeA5qD6tZbTGKX7OyQPEq97UKBmV/E0qpkyENWio27lRX1GtJpVtS2gxUGt+8t/FZMVoJ0BVdIiulFTDQxI56v3oJ2pgEtq72Yz4FWo/u0wzPRFBx5/GlH7AALisceuEiiAF9E3TSuUgL2KkaXRLDegZ6o9Thx1hQAW3ezZmekwHnb2Ce6DQGLVvQVYzzgW3kpqGS3fqH+1+UqB2pL8PtMjdgf5/u+R/GN7ffh3/n85HI/L9eH6u78v6KvlrpEe/wA=);lineShape=1;strokeColor=#FF33FF;" vertex="1" parent="1">
          <mxGeometry x="477.5626726291787" y="525.6923655138455" width="34.66485194208576" height="15.135331648660213" as="geometry" />
        </mxCell>
        <mxCell id="br4D6P0TwLwxCStL8oGd-36" value="" style="shape=stencil(7VvJct02EPwaXVHYl7Pj/IerLEeqKJZLlrP8fRpRQBENslk+ZSnd7CcMCczS0zMY3oR3X+8+fLm98fbr89Pjz7e/3X98vrsJP9x4f//57vbp/hn/ugnvb8K7T49Ptz89PX77/PHl/18+9JX9X788/tqf8PuLXDHJdSFv/3j5wXuT21+//Piy/uH+87Te5nl9Na2cr88mpWl9SMYntd76aX10xovnJ5PqvL6YGNT60Kb1KZgknx/jvL4ZL5+f5+fnKPeTTZ71U+zQ8In+S+Dnu3i+vppQeP9FPL+aSvrB/uv5+mbcvJ+4/XL2fFqP5wt/qMbO+onWRC/tO/tDiKa58/We/SE4U4T/O9ZnsCaL81rTLK9X+rFLPLbhgSfr/Rwv0FgS+7esT3hUls+38/67x+r1s/57RAj7Yv+z/n00RdgX2ib9BGlfZ2zg9QpP3AEeVmEvb2zk9cofPONVXy/iMRhneX0Tzy+mLvt3In4dwqmxgFcKxY4WAYVwLpmybKkJE7u6vAE2Fj4NpwiL06k3dJ2Q1drwk2OBzWm2MA4mCLeGQKW435DsWCByoEVo6UJgzsTIfOlCgKDdmSpcDwJx3lKqEqsh0Cg5+ZFOjgWQvePyBrWlzPCF9B3VGzKfIQIflaVBWEitQQJef8N8hoAMqLSU2Q5IUVWEaNfSvKWec9ShQQlmb8UjVEx3lFlQKaktwTcpgNwA5jOBSgJ2nOpUYD6DayZZeQZCYuCIdA1EMAkUfehgCglknRvioIo7Aa/egNxHhwaQKS2l5QxpEI4zAeIjbnPHU/f2LJAUtubFcGW447FAYQoDw1nlS3VA7z7HCQGEC9kBcK9IADggJcWgQSD4gaSbQJHxgCqIfClu7ngsUBlmYpLEATyZ7BA1E0ChVShlJUk98TyuBduAhTOBQGQmSLIaN2ax86UgIq4LzK7h8E5hBxy6zs5XBlAdm6ENdre9wMp8Aj9osyvBu4OIHwgwmdEVDATszK/CVtQcC2RTlppKQWsXWIps6d2Fq0KkaVV19mghgTbg/MwOVDdkpDhxhrj5wSaQJVFHeFFIg8yoM4BY8KHbKIaOS1XL4I1aW/Yi/CBHu2K7CC3heW32blTbKn5SMZF4bpWWxhEpfoCUyg7ZLdVAHSTwWMAvFU2Qh84r1QijqXQssDCHXgKpN4ShxB37UcwBAgStvS5VXTMwuFmtoEtFtZE2z9kJZGWHtBTGEFBbSuwavbehtLQEEA4d1ZbyQlu9NtxC7r0OUQikpRsgDbe0L3tRpA6dOQF16q3fQNQbAVSUQBpH3IXohQD50gUIwJcoTQNmqgABuDeXcUkSsuwZl7KV1TEE4qylq7YquM6spWIlMc5b12MTyLLx2V2DBJrsdJWlFVWdLHaxAaIOFcWuUCv+HOZD1zQKimOBpdtbNf1pgbl6bbJAaZmZdPOyX92WhnKLEjUgQCEKAXUjAQHKDy0NQnQmQHbAqRRUdoHZWxv4jQCyvqU54lqVRRYECIzxi1d2aJzj8ItyjVY5pp3desFnEnR10/WgDlEWyzXJpVvhBNGq7C/BToQzTXfhWubrif5OEXL9DWS5PJDn9Az0hiQrlK4lekOUxBUCLbOA6v5AJ+xMUfYE2nblt3+DuiRq3ESAwEXIUZJrG/04DbnMdlAN2p0370wtDdG4oIYeFE3s3ky4oYuajn2LgDR1ZTLdLuB4aa2/YtWZMxFz7VtSvvHdAmnktL0dlJY8IxMe4QQw1eUOFGksKAHPRU3beiNnmZq4QLPyPgFkhEIOm1RXHCBxdO9Vq/TvXqxSpi6Sz6S20BN9M4takd5QmjxDWlyjRJmDIFDnPAq9qeGB1/uJXc2ubsvSgmRJd2egpTwfOl3Uu5adLxZ5aBTIbrZ09Jrfu0FGdr1H1VqHTrh/2nSN8r+tqNWW3irqvwX+axX1UiD7KguzHJcbPC+RLy99uN7wVGq1bAfEtGp8p2XMJ+qxDhTcxLBSlHMmHbboJrWN6vGsW0k1CvSm3Bs7plGQrGEmJgaB4iXp693+2XBIKCo/hMZ8qejpkZCZrWdUHOoNkRMKtHQh4KnNbHXnOzAYw9JBXWYFLiB6BlKHDjwTFe3VG8LsfAggRX/WN/QJDxFA/dCz4fo9p7rj2O5MNjYjeS4MnakNJ4l0WOppKyvR6Ji/6WI6Bh6lcIO5H69fgLvI82I9zSH1izIVawtuuyJBcn1Dn4lR9yeLQLDSTyHAs3hZdq/6lc4Cw/IOaIvdXegoehgDUyvApnJs+AVVPwBmGWsrY40StxEJhHnJy2spxG5e2r9JX69TZoBlFAz3YavEdlAlH5yZtISEK0eXMocnEESxDJAQprhNNsn/qZEZNUjxNjIzMsPbyMwikBbXUOWS3/68p+nKDo1brci46sYSqMFfBgQ9VGAZ+frdtGJKju+AgOeSljg+NJBP3dB05JsPnS5mNSwDGdieDKA2ptE3gaSRrzJTKlY2pPsXHfOhi+6O9YirLCCnPB2DQLmY/bPLrEaSzgdnplZU/0pDdX8b3ycmJ/kSBLiNo78bQUBSQ7pTTAECPeRp/MrLEHVhmfuxskvpLBcCrzF43KVk9hOsHgZh8nMxp/r2LcXbtxRT3P/LvqUITC2gf9k9G53gnX0VnapHY6lK/4uBkTJVFekcc84+jqje4Lls7jAnVAoQovYFUqayQUetWSAlOVziluue7AZdOjs0FTy5yAkzZ5mvFV0LV27OlSTjOHK7sFx8nsL7yU12nj3jUI7y0xHHuJ50Y25dv42BnO2HmpdZFy7LWKOVk8qexytem2gncRyXhrDKG+GgzS6HgjnVd6SU/sBdeauHlPmewOkr1chDDO7qm1VqBXfyosZK+RtXrFf6WZqoF8/Py+hJ07dHDFquycZRWXDaylq/LJci7uIbXc57GrG+/xvsq/X4x+sH35/uHx5evhff/50/EMdPLx+Xh/d/Ag==);lineShape=1;strokeColor=#FF33FF;" vertex="1" parent="1">
          <mxGeometry x="517.398477293254" y="516.1583920997809" width="109.14064892362535" height="58.569448259411274" as="geometry" />
        </mxCell>
        <mxCell id="br4D6P0TwLwxCStL8oGd-37" value="" style="shape=stencil(lVdLbttQDDyNtgTfn2+dpvcIEKc26tqB4/5uX6qCHJOKRshOljmShjP8vCE9vO2fXndD5Lfr5fx99/vwfN0P6csQ4+G0310OV70a0uOQHl7Ol923y/nn6Xn6/fo0Ro5XP86/xif8mXBMPYygyH+nG5Koyv87X6f44+F0F1+Io4/veT0+MAUHyBQSAFRKzQIi9bIOiPo8B2DKfR2QEkX7Sa3Oj/gQkCMJG0Dt1CJIUiJ2gEgJcNC/m+VQMlVeB7RAtRtArsQBADqJFTo1akAHqRSTBTBFoHQPxNkAYppZfQzIFC2H0KkiQKEuFlCoAdK9eXc3yoiCEFvOqgJ6vlAsljJFRECo2BQxLDaNF3HxDFzRu3c2U8LxxfINVIBNNb7Z79FmAepA47vlW2fJV5oF+8JRRihBfW4NNwJxC9Cc5/JsqtUUWQqhEQMOowYOIJQQQKizBzSkgrqoegBqqaNNbXfRJluw71wphwyFWxZaCJTRGxqJ1UFwZTZf+oUKrkw3FCKW+fb690oIyNkqkdWAcXynwC5+w0XZVyYjidXX7PgKrmRnugIH1Bjv9YKdri9addhqRZ8E6J5gFUthHtNr46bY5qiLQEccgp9PSeuirgN0ZDoTZX0nULktsloirGQd+2JtXXXXwYtFt6TrzYlrq0uwxtPlqANn63LULUAXvATSqllPtld03lrw3Caii0DGK2R2b1DhQPUvl9Sx7YNPWmzBY/2B9rXYsu8m3QrArXfjC4D1eO62d/EMRLjtBbf4BjXQBNl2p+WH+ruys3NZqw9tm8u5r/0LuG4ZzyQwP+57RD7HVxpFqJfLp5QNvk4vwZvmwg/jsQvm53PHuu14vXg/Q74cjsfpCHr/vz9z6q3pvJoe/wE=);lineShape=1;strokeColor=#FF33FF;" vertex="1" parent="1">
          <mxGeometry x="411.7952352623972" y="563.6733438469919" width="154.1284268486438" height="17.34177942269457" as="geometry" />
        </mxCell>
        <mxCell id="br4D6P0TwLwxCStL8oGd-38" value="" style="shape=stencil(lVdJbhtBDHyNrkSzyd7OTvIPA5ZjIY5lyM72+1CYtCRSo0J8G426hluxyN7I3dvT/et2k9Pb+2H/bftr9/D+tJFPm5x3L0/bw+7dnjbyeSN3j/vD9uth/+PlYfn9en88eXz6vv95/MLvBadCmo+onP4sbziTLG++LIDn3csFQCpx94BOvQAAU/KAPGjIbUBupM0BVKkxAFRSdoCaaAzgUqKuDtDMAophUPVZ6pkYuFQacfEWGlUAqI0k+RgqJQBoibK3UISGQoCKTysTV+BSnXWdAMlUQZaKkvi05k4JATrl4QGFMqBGKVS8S0YWVOnCVLwFqz1ySS1oX2nj7z/CrwOYmkZABmm1Buo9upQRWzO1GtMqwCXrr55iWmED2fd8A+VMpUGAepd4UAYuHUMMMlMpJwAwXfIxsEDyifWXrzTzTPR64XLsaQMkUAc1Cz0CBFS6mJJ6tpq2VpDWYtrqW5SVOrLQr2Jo1IB6lzHreqq0SSVu0cDWrLBwFkNwyVqUgS6ZbKUAGJNd63W4Ip+xawB6H2ecT6u1qCAumQWNFhrQJdGVGNB8sO9V75INsQqCto6LAOsHkFYD5ABIJKinx1VPW+FAP3wYUDVSY8CG66a8nqzWDkjth84ZeyF8BRSak00DLzOaqIBKjxEnkBEeAkqkRjsJz3rUI06gbvRGANM5r3y9z8StbwIcdckSh9hqQ7H5vF4kbp0bNrN86UadBF4PIo6sXqEBpuG5Z+tNA/1zVedqYg9ylCYzT2VmqtCf4v2x8VLA+Xq1yBRSxNQ6zZ97B4mkqXSoscw1/NYOHXY3hopnBQsFTnMPunUL0BHOM5JgnaP1fB7xQU7Scz4v6PyIVwCefXprW+Cw28KpZjMnEFTgRqUl+l/mfn/rfMh/g3y289XzocNLmJ4Wj3PLwx3ywxfJ/wDYw/ne+rh7fl6uvZf/x3uuvVruyPL5Lw==);lineShape=1;strokeColor=#FF33FF;" vertex="1" parent="1">
          <mxGeometry x="86.96306797061698" y="172.6080163903829" width="18.404398732985555" height="28.480489888328975" as="geometry" />
        </mxCell>
        <mxCell id="br4D6P0TwLwxCStL8oGd-39" value="" style="shape=stencil(7Vpdbxw3DPw190pIoqiP5zT9HwHi1Ie6duC4bfLvO9uD1idqb4w+FS38dr4TLZEcDofaPemHb/efvt6dUvj28vz0692f588v9yf96ZTS+fH+7vn8gk8n/XjSD1+enu9+eX76/fHz5e+vn7aV26ffnv7Y/sP3i12RXjajFH6ML2L8+4ufL8sfzo9Xy5tkm5bHLsVur+9S07Rek+R0e32MEmaDnEWZQZIUJwPLkhoxwM999tiksB1M8rxDqdIDNWgupl1aJQZFwnykmiQoNYhhNoBXJA3bkepsUHge4HSeDZpop2Ftc5RakMCczsPF3SCKZmKgEucjtSSROQ1oBG+QWVjjCOL1DsyHIFoWH0iUuljzQYrE5yZ9yUIm4O6jeK+gmghUm9Q5QigeI+u76AyjHMV4ddqMbEXIWO1U0TkFIKREcpai9JkwUpVAQoqfHYVplUZyBqddKeQijeAOLvZ5B9vr9dgAKJthUXYKOTbQQUA7LsAwBBeapTqgJgokNc/DzSglbQau/ivtDNuR5rB21ALJAwwc03egi/QqRCnPTvc8vrmVB3NHslGAxwZR8gzv/iY0dM50r5TDAL5Ulh1IxaGkU/I+MGigHjT4KCkzKGLF5yETeMMgzPWATAe+g4d3GyV1ywfXQMsuVG5FqTjiCwO/tzLteAmAZ7pEi+8lyUaHPDTIOgpyN+jSmUGR6rgV7YV0q9yHMNqJrA0+PzSwOJrBHqU+An1skKVXnwdW04Y8zCKgqlQCjZJ8B628wxX1/QHcWpmBSZyPBGgwLEHc9TkPGQ2A+FDjyOu+Q5JCooSY+B2U1gPKxUUpG5V7TT3zAV2sHhqAELxBIlQJUikuD5WSMUilu6ZY+KgRvQ8Fe7Idgm/sJdI8wGmncYHfQHaAwaqvmN7rwWtcgE+508EpskpLFGFVh6VMne7q87AxFYEG+k0xb8BoBi0wZX8kY0dqXlUCfKxP9+6hgbByYR88vk3f2sLxjFWq4WCgriAilTPwOi34NiLJNqXgpoFCGwQy53VopdQHbNgyb7CCAFz7MnxnXhBOuKIDVOIDSs5daFinjRoGZXbajDq97eDAFHlY4cMcJfRdWqPLTAP6phWkY669KjnW5LZMB29A6du8wnrLYM10H+LgOKxF1EmBQGdRjM5OYcGAdZTtjkT9kdhsCfFii3ZgmUZBuhIFa7B6wP9zTmuTRo60xWQ+0jZtMu1gnsggZWlnD2Mg2TMNdUIMMHrqcgPHLtSQh+jCippmTi/qBF5RwbRECXBMLHHqqfKqAxwr1+KJCW3MiOp7VZH7gNxp5vIyNrVIaQN5csMlAFzYQBAWqVvp7e82YDjasMGexwZ1abz7xcKtsUldqgOfqLPU5c7u/Wbjv3GzUZcdCDT+FzcbS6a3LsacTn5mL0qHy1jHAa7YmJHrv/V4gzj9/nhjENn74425ry8SMQ2lfNxzvcOY142ENA+avr4gYw8f/D2l8ov+6AeBpHRGDF4oxUAJbBlaG6WvsNya0sE+LA9/6Pi59+3dWc4Skuf/zqfh5JtBoJlVT9SBPiRanq9wMbgz7OtyNtSa762cGYonhjQuTW8sL+42hXLnP3wB4M3l+PD6rsGX88PD5VWF69/9uwn46vJeg378Cw==);lineShape=1;strokeColor=#FF33FF;" vertex="1" parent="1">
          <mxGeometry x="275.88571824747646" y="200.69630715056837" width="59.7507504234502" height="25.52695868131343" as="geometry" />
        </mxCell>
        <mxCell id="br4D6P0TwLwxCStL8oGd-40" value="" style="shape=stencil(lVbZbttADPwavRJLcs/nNP2PAHFqo64dOE6Pvy9VYR0tbU+RN0nL0ZLD4THpw9v26XUzSXg7n47fN792z+ftpF8mkd1huzntzvY06eOkDy/H0+bb6fh+eF7eX59my/npx/Hn/IffCy4JSZ5REv4sXxrl9u/D18V+vzus7QuVOthLohruA3KiMl6QAnG6DyjajzugMCm4oQYKMgBqoQYAkSnFESAUIwDkfnxxqVJBLGk/vgAyBcSSUB1jKJG0ApaEUvGAAAAWYnAxJGIQdAskzqVCESSuZZLRJctMKQDQrvIQqSCXGpUwAiq1DF0qOqpbqAGWLOg2umS/QHkwWpu7oVJlKO80yptDwNpQX3LGQwU0pUg5ep8U6bt06VwAiTLg1SqoBc8rUp9aVxmjnmsUAGLwNNULDbcBkRKPcm3UBLDExE7fGWYuWQwjS1ZyyKXcSNkDggJt1M7JCpBB4oxEVxAWQ0IFEX3JGUsJ1Wj1nczyoACwUvMq1dCnSmFMdWM4g2ZA/gxAuLu8AlSQOc5X7Tj1OXkbwH5o2WAtSH399DJGGzGQhs3MMQLWPvXu2LsksLVzFDHpSGmhDGohEruhDmd6JRlVpz3lt51Rny+G85mb/3+gCDqqeZvE2aMOrNz77Yc9UoMWb8+dr9tsXq08gtuvDeKxKCO0t40rub4C+f/0Uvhfe3v42EBfdvv9ssCuz/3Gap+WbVcf/wI=);lineShape=1;strokeColor=#FF33FF;" vertex="1" parent="1">
          <mxGeometry x="337.42043339828865" y="209.41143031824652" width="8.314427180755956" height="19.27384046061684" as="geometry" />
        </mxCell>
        <mxCell id="br4D6P0TwLwxCStL8oGd-41" value="" style="shape=stencil(lVZJbhtBDHzNXAk22RvPjvMPA5YjIYpkyHKW34fKoCcmNUMkt1lYzbWKPfHD2/7pdTcRvl0v56+7H4fn637iTxPR4bTfXQ5XfZr4ceKHl/Nl9+Vyfj89z++vTzfL29O38/fbCT9nXCIguaEIf81fagKsf758ngHHw+kDgBpwMYDSoPA2IBO0ZgC5Qw48lD7OGwBOkPs2oAqQBSSEjNuARtCrDQkkB/aaYbcORhFW7TuBoLFHwCCe3oGqOx+DkgpDQhc/R/YVJBl7gRJ0QMQPRaqQAkDCJcGBIA6bLB3EjhEj1KDJmgPZMeIG2AKATjbZIiWQIKTegLIFZOhBWXuC7gAFWII5qlBsXTOPydoaVHRVknHEOhX6KOIC4DCHWsfvpXHLsGwBmp2lFA+ThsSOnRQKRktQrIcaF6mA2EYTcJCBti15dqagpr36eFRdKBi85NVC5SA4Xwo0OxUNasTmux4n7XEgR0pnsfJy05dAjxSQbUTUY4FpvsdcACM2rwICNisTnEQ2JWfQhZI915TfJfCgS8a1QYOkwINqYrGKpHXrgQdtEzpZxXgxCFTxHiL7+4jq4MZ6zn5P6WbpQdvuBE8wvCwgFMvMXkZGG/ZuiyhXMaAyAtvzVWE5qE8aO2mxXzLaqA9b+9rCDhdfz5pDKusStCyoNDJaj/9/b2v/ANCHv5fDl8PxON8tP/73l0n9NF9E+fE3);lineShape=1;strokeColor=#FF33FF;" vertex="1" parent="1">
          <mxGeometry x="352.6086084522342" y="208.20983012810552" width="15.18828791422311" height="11.17299280191071" as="geometry" />
        </mxCell>
        <mxCell id="br4D6P0TwLwxCStL8oGd-42" value="" style="shape=stencil(lVbLctswDPwaXXdIgg/gnKb/kZk4tadunHGcPv6+UFW1BiXD9k2msSSxuwA40MP79ultM6Twfjoevm5+7J5P24E+DSntXreb4+6kXwM9DvTwcjhuvhwPH6/P0++3pzFy/Pp2+D7u8HPCSUVoIyqFX9MKQ/Kfhc9T/H73eh5fkG18IoTiACqSBRDNK+sARioGkAWFLgNiCAjBIGqe91g/QpAtoDUUJ2sW1GoAEtE8QAZlC8hguQxoeab9H6Ah82VATcgdQNykMyNaXs+IW0WoUKX0R/zlYRWQApLldRTT07o3k9pLvAOQxcYniMPqwhh8JYHeelxBybt/SDae3PioTmYLCBBHZUpgq3IT16m5LawtiA6gqpFLD2AHoE6lLoeI4pCqnIgtHq2O6LCkIpVOtubXc0CO1hcB1TuhonZGJbCjQ+OFUyuaUzu1gjsAozksFW2jXQ4yb7FuDQYtqlOcK6W8YIldpWNCXSTNDq1rTS84BwRQp0JAc8tZOue1OaXb473yDL3KrfgMqbWtBlcmTyyza24dbg3V5nBlfEaex8aNA1pP4I4l9wUQF02vuqJpUyVb/tkthNTQrE21x3t1oNtZ0aLLaCZEu39AcUxRdCjULt6bmtpQq9wR30Lf4v37jP2c78hXe13Kd/CpL5ti7+/rpTUudIcf7n5xXo3Xj//P25fdfj+9js//75/DujQ9penxNw==);lineShape=1;strokeColor=#FF33FF;" vertex="1" parent="1">
          <mxGeometry x="365.1882769703359" y="199.8123139182146" width="5.637135590252228" height="24.46115227473058" as="geometry" />
        </mxCell>
        <mxCell id="br4D6P0TwLwxCStL8oGd-43" value="" style="shape=stencil(7VnLchw3DPyavaJIgM+z4/yHqyxHW1Eklywn8d+7mQ0nQ4ymVT7kksptNSKGBNBoNDEXe/fl/sPnu4uGLy/PT7/e/XH9+HJ/sZ8uqtfH+7vn6wt+Xez9xd59enq+++X56evjx9vfnz+MlePXb0+/jzf8ebPrYmEYafh2e6BJevvryc+39Q/Xx936GCXpYmBduhEDk5IXgxwlJ2KQJa87FJXQiUGT0BaDmqUpNWh9NWhS2JG6xLgYtCCFHalLsNVApVZ6pFJXgyS1cKfdDkVyJgZVotsBr2BRKhLXPLTO8wDkZG9QI4VGNW/QWB7UQwMGiUUJaI3e6RKIQZCUVoMqRnzoEwfb+jwzebI+uvXGgRH9geobwIg+RjnP+jgLal0NkkpiSEoTNxsFbFE7q2hbs6BBlBeoYyUUNMmammhZ1gcJZL2BUKJ7fyQcZmVy4lw/GIF4nEAP6waGHUhMk4m5rAWatXGktZwHrTID1P8aI2sU2SmKrdWpOp+8bgBaXXcY9UoMcvVpizwP5VD/WkSJDwW9ZI0S4mYEeTWKrsgbcSOZRjU6AlB4xQxwgPVIQHskYG1x9tdd9XSCJTBKcz5E2tPbgQEAvk6Yvh2Iu4AHSVjRm3xrCGLsSNXLjGLSCe3BoK08maBLWFiL1PVIyLSysJbJu5uBTcCf+uDyEKjMGL3J8WSVTgx68AWEegjEh64SVyJTzks9edUAA2NHKr454Eis4/Y61eBm0CjZ93ao6Tjxe2bQ1xIFGQdCMzCoboc2dcSZD65EQZ6JwLtvWm0zMJ5pNP3Vh7TJ5LNMN9fVkRkmTIK0fNiBOA3pFcPBB2ZQPWukSHXDYI3g82Cs4gC1Fd7GbzM4ktO4wBKTbyjRuEZJG9VviJIT9qgH1qd7nD1zX3EMrXZoim/UdPaSUt+ARvUXrMFLzIcm6iqO35dGibo8cCy9bkCF/SYJtybXJlrOtnBgQusuLK7Fnwl4pLRhPhFIDW1B1begnVtn4sH1ILgVSSbqQVcCkJWEqZpnJsgJRmWQWM6gKk1dBXZWr0ukHaIGj1fomUh4Awauy1mfjfLMIDvV12hVI0rBqb5Ai7QFr5gCxRKgEVyDmDrzjJfqCowhQ5mEa34D1LQybk2+4NBQEiGyWg+3vs6vA32+bwNGpmJ9DJLWgoOqZHoJNxRzw6tCxXpO88S7tstYBre27m6KOuvj7JbVndA1yq04gFPGuVMKwPXfjZYqLx+c2DmNKLGrpR7AN/YkUUKDsoPQZTcUNKiycnFMtIuOJnsYhAaCJT3AGx0okYrToyLLFHwaD4lDkZM8wMCpmcJZ6b8yCHUTu8Lny/8PQv92+scHoSRK//YgdDvuDnmNVA9A4ERDoZeNdJinlSliXy82L0pAw43UWvDjN+20kxzkqm64PXv/igjlWhIKxr3f5sjldUDMzrqt5yIs+pHpEDA0nscRayaITl7jDaoh8clz4rxfz8SFn35iPaP3g1KAv2xQ0ubgchdPVpCganePNCpRf/TD3tvr8eOfr4ifrg8Pt4+Q+//7r454dPtiae+/Aw==);lineShape=1;strokeColor=#FF33FF;" vertex="1" parent="1">
          <mxGeometry x="399.88460177138677" y="213.2916322789464" width="44.755200705674724" height="26.29116579211245" as="geometry" />
        </mxCell>
        <mxCell id="br4D6P0TwLwxCStL8oGd-44" value="" style="shape=stencil(fVbLciIxDPyauXbZkvw6s9n/SFVImFoWUoRskr+PJlPDIsPoZozbenSrxwNv3naPr9uBwtv5dPyz/RifzruBfw1E42G3PY1nXQ38MPDm+XjavpyO74en+ffr43RyWv09/ptu+JxxjRDChKLwNe9wRUk/O79nwH48XAMKWjMAaSiyDogh9CFyRKtuiEoGUAQUHEBErgZQEyKtAyqBbITGSE5KJUDEArRNcR2QClKygIZW1gEiaGwBBcTrAGZUW3QLKE4ESkjZdimCPEBAtUVnpdppqwLI1qBtYEcbxEvGFzEliBOBI2K0ck0ghweJEBuBituldJOSJlnbOiDnpSdXAI/pUtEsD1QRnBpq69WqRXtqbRkS+7ZWD6C82qFW4qrnAm3J+DKiYUnyPkAQrTRUfMWZaZ3gbqZ1yqMDUI9I3YgWV0vqQt0AXVnVfTFp1Z1tVJcIVvlb61OfYSeCirPTRhXXZyZAuQE4VccKtkSUBnbkGgO4c2PfvgVs25ppKeru+dDTkGjxnZXz3edEyJWe0txZhq+8jGhnQW9ozvlIiz9cdKQkO46h9yVLQUZ2GqT5ZlsxLS54nwBCshX7slbLy9KdF2f4s/QSYoj5Uuni/4Pjedzv5/fK9f/9A0W35scNP3wD);lineShape=1;strokeColor=#FF33FF;" vertex="1" parent="1">
          <mxGeometry x="432.49867036036653" y="202.90378718807642" width="4.987019134056027" height="5.20970379934181" as="geometry" />
        </mxCell>
        <mxCell id="br4D6P0TwLwxCStL8oGd-45" value="" style="shape=stencil(7VnJctswDP0aXzFcwAXnNP2PzMRpPE3jjJN0+ftCdamKoPTiHDuTmy3piVgegEdqF6+e72+e9rvgnl9Ox6/7H4fbl/td/LQL4fB4vz8dXvTXLl7v4tXd8bT/cjq+Pt6e/z/dTE9Ov74dv09v+HnGsaecJ1Rwv85XUqLg/1z5fAY8HB4XgOgpuAEg24DgKfUrZEcpAYDeDj2gUslwBWNSqRQdAOj7+hVqIAnbAE7kg10hlG1AChRTD4gYoBZz73QmiduAHMmbxEnzah2QKcUeENor1gFqknQAZuIKAEK5B8RMGeShOAq9SZqZClZQAPdR0txHwNZphR4gJNgiZ7hHjJ//u/wcI6qA28WT7+2J+P2BuM9yaExcf55tKXhyoDhLptDzVB0CNFXaJ2eed8D+6qgG+zzIV43ksrUH2F+1ML3xF8WnZqrRxhPkq9aVfDF8Xvp4MuRbFQoD35A9QrF/fkowdqCamtSUgKqfPO4zzIEKcqEMfUXbBOCQAqzPiTIiRbF9pSRyoE1olFzPCu3vHgBEDag9QFoDXwcUyyPR1gSIKkPiJJAD/d27ubJmRKQKwqRLVANQtwBZRcdgT1Z1KyJAtuyWCmeOMKU+rmokNMmTmHp2b3QYsR1PlyiIfnnwWosWAXiIa2l02WpiRvFo4BzqGjrLSw/gViNbAKPalE2MSkjbkEmEa15t1ZxhnwY6ob4hjf8zoLbev57q0HTmApBRzXFrXAuTUBvQNPnBaQd8mIhgMu2h4plKziQuNjpuAcQAEqSGAnwfVuUSStzETdNosBhWA9gABM5cTVwdAIJ8cE2DLAG44adhBbTHeDdA1Xg0XIpNKW4KsZ5LOoNQxZW5vV845VQalnfN0UlLGq2BJ3WZtd2FWkAFvRi1hNWGAkofJR+bnPjQ27sPvf3f6e3h/YK1Qm0lu6gYODarnYK6AvS4tCE5R6g0ib+VAtPqOOMcs+VoekOfq/Q1rY6hBCvz7cXpCBpqOVsJpoI+oeOUbE9HpiEEEs08jE3sQ/St1y4Gs4Cw+lErJLiCd7a/T+oYRIltL51SD4pz2GBoFtA5m29qa06zxgBQVVljBprWAuCRL60WFwdOSLqMZ5Ec4QZmPO1UAIMQ6W2zWdArCWSZkz1aVB/QBOQ1p2GWa5t4MyDBnsRie7CuGcDWMzl7FqlronO8EZDmuX6hSUoNNJdHp1NoqbwwrCnCreqYOJVfCURppIa2SbSjf/dR+wUA/fHvZP/u8PBw/jCwvG+/BOil81eEeP0b);lineShape=1;strokeColor=#FF33FF;" vertex="1" parent="1">
          <mxGeometry x="445.8669817462794" y="196.3004995614216" width="25.28420711790045" height="37.51367973523929" as="geometry" />
        </mxCell>
        <mxCell id="br4D6P0TwLwxCStL8oGd-46" value="" style="shape=stencil(lZjZUhtBDEW/xq+qltTrM0n+gypMcIVgypDt76OJ04NbbV/wmzFz3Fqulp6N3rw83D5vNxJeXg/7b9tfu7vXh41+2ojsnh62h92rfdro543e3O8P26+H/Y+nu+Pfz7fLk8un7/ufyy/8PnJcKPBCSfhz/CYylfTvmy9H4HH3dAJIIynXADFTnk6I5TKQKkn0AAMgZ0rjCaoUBACVch4AUZIKgPX3OsAZO12JHZAo62VAc4/J6QkZ5MHCGkYfmBQB6vOggRg4LeKdjkIR+GAn1DQAKZOAPCw+tAHIQg1kWlOPSQeKUgMnRANGp2ug0oD4SjdgBSIVcIIZEEe1VgsDXwbs91i9SQxMqqVHfXW6kYLEtUBtBoA0WiRJk0kRANY1nNNMGUSpNQrqo5RBpg1odQQyBeRDozqqtVZKyAf79+i0xa2Cmm6ZdKy4JrBEm5KOJlmgAzihmtPsgf9Vfh7IXnwGKDpBfabfjDwPWLk4pxk2MpOal0brRp4HKkUnvkwN1IMBbewaVlIo0+aD63xVSBGgZ0oUydssltEkC0MC0rCYlOIBNIEsTVw9gBqZqZVdlBgXUPUTyKLUUAGtBqxA6pP7LMAhUBjFZL0NNdelbYxHWI0yAgqx07fAIbfUyxhXi3QBJXc1YMuGa98ncTg/g8SPdouDgFxrmYo0UgWAJErVJ0IBwJWqyxzDKcerdla9JooAKF4aGVskfk7b2phAXwrT83j7maS6rLnwedcBNMJyk763rOubWYjKs5/+piIou2XdGx1QqKFow2+U6TsitaVb/PNgoBf2CbAIoNFmCh4FxNxFe3F4ugO0T5ZLe1UeAUtZAxKq64K9aiLi0cb+YpLwXck0rA6IfYH94OXKAFRm8/XNANRR5wvie0D022dSOEd4LmVLHDqB/QXROmZCy+R0L2GsDKpzr0DCIHVXYrtgIqlOzxd8A/D2LNcaNJm9v4tOrwpo1C7ED6ZsuRqC7jWLwtopqrWr30t8ALAPb69B7nePj8e3KKf/969N7KvjKxf9/Bc=);lineShape=1;strokeColor=#FF33FF;" vertex="1" parent="1">
          <mxGeometry x="602.490853855601" y="194.51316350608238" width="25.326987233102045" height="35.644383027257845" as="geometry" />
        </mxCell>
        <mxCell id="br4D6P0TwLwxCStL8oGd-47" value="" style="shape=stencil(lVfbctpADP0av2pWl709p+l/ZCakeEohQ+jt7yvXsw5ajIA3Y452paOjiwd++ti+vG8GCh+n4+H75vf4etoO/GUgGvfbzXE86dPAzwM/vR2Om2/Hw8/96/z7/WVCTk8/Dr+mE/7MdgxUJyMKf+cXlYHx/5uvM3437s/wBMXiS2wnrOIRmA0+RyjpOj5ACAafCqBzPkG2/sQCyfE/Qc0GLwUkXMdniNHguUKKTrwIIVkDDUkcgwjJMqScRYehKQTrUoTq4JlAxHoE4jAqGoGlFBsHq/iIUC0+ADv4JH2Kl5yvZ2ARzCfe86ckYOn8r04CqvQSVQfJwZc+3gSxOPgKxearNgfX8QmK5QcJAjsGAbBYA3FvKAGSZRRTU+16yirQhUF1NBQzoI0ZsxuDaBVQf4NX93yhCg3akwVp2rCnlZy8aVmJpbU2H6/hq9VRaolfjyAA9bojr45zHwABOv5oY+tksaR9PWe1tZGzunTOz6pK7PCUHdUxhE6mwE6GK/V9gl1+au7rTDXlTaZwMWt0FPiFT11jQUDPo0cNSgG202nqRR6nOo5t2TD5zVRvsEmQ0NJ4tft2rAY3hryoZimD4OY5xcb6nSN/GiC2Ad/YKRJBtJV2Y2lRA7QGN7aihK2VLAYC1dGSbinZFpu2fXF6dhTInUsZstO+pPa0qhw9loQBrVp1cnmrFKeLqRD8Ua4dFB+0oNZT7nRK16luOt8IG7UrlkeITW3/uzNzckGrL41HN/LbeH34XP/fxt1u/no4/7//XNBX86cGP/8D);lineShape=1;strokeColor=#FF33FF;" vertex="1" parent="1">
          <mxGeometry x="534.7306288069674" y="19.22943634870876" width="7.549305213606658" height="32.97571421067755" as="geometry" />
        </mxCell>
      </root>
    </mxGraphModel>
  </diagram>
</mxfile>
